<svg width="152" height="72" viewBox="0 0 152 72" fill="none" xmlns="http://www.w3.org/2000/svg">
<path d="M59.74 44.9051V41.5051H52.9L57.52 37.5851C59.28 36.0851 59.54 35.5851 59.62 33.0651C59.74 29.8651 58.7 29.0651 53.3 29.0651C47.88 29.0651 47.08 29.9051 47.08 34.4651V34.6651H51.08V34.4651C51.08 32.8051 51.56 32.2651 53.28 32.2651C55.06 32.2651 55.54 32.7051 55.54 33.8251C55.54 34.8251 55.04 35.3251 53.9 36.2851L47 42.1051V44.9051H59.74Z" fill="white"/>
<path d="M105.74 44.84V41.44H98.9L103.52 37.52C105.28 36.02 105.54 35.52 105.62 33C105.74 29.8 104.7 29 99.3 29C93.88 29 93.08 29.84 93.08 34.4V34.6H97.08V34.4C97.08 32.74 97.56 32.2 99.28 32.2C101.06 32.2 101.54 32.64 101.54 33.76C101.54 34.76 101.04 35.26 99.9 36.22L93 42.04V44.84H105.74Z" fill="white"/>
<path d="M90.74 44.84V41.44H83.9L88.52 37.52C90.28 36.02 90.54 35.52 90.62 33C90.74 29.8 89.7 29 84.3 29C78.88 29 78.08 29.84 78.08 34.4V34.6H82.08V34.4C82.08 32.74 82.56 32.2 84.28 32.2C86.06 32.2 86.54 32.64 86.54 33.76C86.54 34.76 86.04 35.26 84.9 36.22L78 42.04V44.84H90.74Z" fill="white"/>
<path d="M61.54 44.9051H65.74V38.6451H67.96L71.5 44.9051H76.3L71.24 36.7451L76.1 29.3051H71.5L67.84 35.0451H65.74V29.3051H61.54V44.9051Z" fill="white"/>
<path fill-rule="evenodd" clip-rule="evenodd" d="M129.1 60.101C142.72 53.646 150.5 45.024 150.5 36C150.5 26.976 142.72 18.354 129.1 11.9C115.59 5.49999 96.82 1.5 76 1.5C55.18 1.5 36.41 5.49999 22.9 11.9C9.28002 18.354 1.5 26.976 1.5 36C1.5 45.024 9.28002 53.646 22.9 60.101C36.41 66.501 55.18 70.5 76 70.5C96.82 70.5 115.59 66.501 129.1 60.101ZM76 72C117.97 72 152 55.883 152 36C152 16.118 117.97 0 76 0C34.03 0 0 16.118 0 36C0 55.883 34.03 72 76 72Z" fill="white"/>
</svg>
