<svg width="169" height="128" viewBox="0 0 169 128" fill="none" xmlns="http://www.w3.org/2000/svg">
<path d="M85.9942 126.273C120.6 126.273 148.654 98.3664 148.654 63.9421C148.654 29.5177 120.6 1.61133 85.9942 1.61133C51.3885 1.61133 23.335 29.5177 23.335 63.9421C23.335 98.3664 51.3885 126.273 85.9942 126.273Z" stroke="white" stroke-width="1.51786" stroke-miterlimit="10"/>
<path d="M85.9941 126.273C110.519 126.273 130.4 98.3664 130.4 63.9421C130.4 29.5177 110.519 1.61133 85.9941 1.61133C61.4692 1.61133 41.5879 29.5177 41.5879 63.9421C41.5879 98.3664 61.4692 126.273 85.9941 126.273Z" stroke="white" stroke-width="1.51786" stroke-miterlimit="10"/>
<path d="M85.9942 126.273C100.454 126.273 112.176 98.3664 112.176 63.9421C112.176 29.5177 100.454 1.61133 85.9942 1.61133C71.5345 1.61133 59.8125 29.5177 59.8125 63.9421C59.8125 98.3664 71.5345 126.273 85.9942 126.273Z" stroke="white" stroke-width="1.51786" stroke-miterlimit="10"/>
<path d="M85.9941 126.273C90.373 126.273 93.9228 98.3664 93.9228 63.9421C93.9228 29.5177 90.373 1.61133 85.9941 1.61133C81.6152 1.61133 78.0654 29.5177 78.0654 63.9421C78.0654 98.3664 81.6152 126.273 85.9941 126.273Z" stroke="white" stroke-width="1.51786" stroke-miterlimit="10"/>
<path d="M50.9141 12.392H121.217" stroke="white" stroke-width="1.51786" stroke-miterlimit="10" stroke-linecap="round"/>
<path d="M31.5195 33.0173H140.439" stroke="white" stroke-width="1.51786" stroke-miterlimit="10" stroke-linecap="round"/>
<path d="M31.5762 94.8378H140.381" stroke="white" stroke-width="1.51786" stroke-miterlimit="10" stroke-linecap="round"/>
<path d="M50.7422 115.463H121.216" stroke="white" stroke-width="1.51786" stroke-miterlimit="10" stroke-linecap="round"/>
<path d="M2.85105 48.5768V78.2168H21.1291C28.7671 78.2168 30.2111 76.9248 30.2111 70.0468V69.2868C30.2111 64.8408 28.7671 63.5488 23.6371 63.2068C27.9311 62.7508 29.1471 61.6488 29.1471 57.0888V56.2908C29.1471 49.7928 27.8931 48.5768 21.1291 48.5768H2.85105ZM10.8311 71.5288V66.2088H18.8871C21.6991 66.2088 22.2311 66.6268 22.2311 68.9068C22.2311 71.0348 21.6991 71.5288 18.8871 71.5288H10.8311ZM10.8311 60.0528V55.1128H18.5071C20.7491 55.1128 21.1671 55.5308 21.1671 57.6208C21.1671 59.6348 20.7491 60.0528 18.5071 60.0528H10.8311ZM59.1685 66.0568V48.5768H51.1885V66.0568C51.1885 71.2628 50.3905 72.2128 46.0205 72.2128C41.6505 72.2128 40.8525 71.2628 40.8525 66.0568V48.5768H32.8725V66.0568C32.8725 76.6968 34.9245 78.6728 46.0205 78.6728C57.1165 78.6728 59.1685 76.6968 59.1685 66.0568ZM90.1181 48.5768H81.3781L75.7541 59.5968H75.5261L70.0161 48.5768H60.8961L71.6121 67.6528V78.2168H79.5921V67.6528L90.1181 48.5768ZM111.212 78.2168V56.1768H111.44L115.81 78.2168H126.45L131.466 56.1768H131.694V78.2168H139.674V48.5768H125.728L121.282 71.3768H120.978L117.14 48.5768H103.232V78.2168H111.212ZM142.716 48.5768V78.2168H166.998V71.3768H150.696V66.4368H165.06V59.9768H150.696V55.4168H166.998V48.5768H142.716Z" fill="black"/>
<path d="M2.85105 48.5768V47.4349H1.70918V48.5768H2.85105ZM2.85105 78.2168H1.70918V79.3587H2.85105V78.2168ZM23.6371 63.2068L23.5165 62.0713L23.5611 64.3461L23.6371 63.2068ZM10.8311 71.5288H9.68918V72.6707H10.8311V71.5288ZM10.8311 66.2088V65.0669H9.68918V66.2088H10.8311ZM10.8311 60.0528H9.68918V61.1947H10.8311V60.0528ZM10.8311 55.1128V53.9709H9.68918V55.1128H10.8311ZM1.70918 48.5768V78.2168H3.99293V48.5768H1.70918ZM2.85105 79.3587H21.1291V77.0749H2.85105V79.3587ZM21.1291 79.3587C23.0561 79.3587 24.665 79.2785 25.9825 79.0295C27.3059 78.7793 28.4274 78.3425 29.2977 77.5603C30.1792 76.7678 30.6877 75.7252 30.9779 74.4852C31.2634 73.2656 31.3529 71.7888 31.3529 70.0468H29.0692C29.0692 71.7438 28.9782 73.0078 28.7543 73.9648C28.535 74.9015 28.2052 75.4715 27.7709 75.8618C27.3254 76.2623 26.6539 76.5784 25.5583 76.7854C24.4568 76.9936 23.021 77.0749 21.1291 77.0749V79.3587ZM31.3529 70.0468V69.2868H29.0692V70.0468H31.3529ZM31.3529 69.2868C31.3529 67.0014 30.997 65.1327 29.6207 63.8672C28.2989 62.652 26.2829 62.2388 23.713 62.0675L23.5611 64.3461C26.1212 64.5168 27.3922 64.9206 28.075 65.5484C28.7031 66.1259 29.0692 67.1262 29.0692 69.2868H31.3529ZM23.7576 64.3423C25.9053 64.1142 27.6824 63.7054 28.8378 62.4651C30.0024 61.2151 30.2889 59.3918 30.2889 57.0888H28.0052C28.0052 59.3458 27.6838 60.3535 27.1668 60.9085C26.6407 61.4732 25.6629 61.8434 23.5165 62.0713L23.7576 64.3423ZM30.2889 57.0888V56.2908H28.0052V57.0888H30.2889ZM30.2889 56.2908C30.2889 54.6462 30.2113 53.2526 29.9613 52.1018C29.708 50.9356 29.2611 49.9397 28.4667 49.1746C27.6763 48.4133 26.6548 47.9897 25.4612 47.749C24.2776 47.5103 22.8387 47.4349 21.1291 47.4349V49.7187C22.8015 49.7187 24.0558 49.7953 25.0097 49.9877C25.9536 50.178 26.5139 50.4645 26.8824 50.8195C27.247 51.1706 27.5364 51.6971 27.7296 52.5865C27.9261 53.4913 28.0052 54.6863 28.0052 56.2908H30.2889ZM21.1291 47.4349H2.85105V49.7187H21.1291V47.4349ZM11.9729 71.5288V66.2088H9.68918V71.5288H11.9729ZM10.8311 67.3507H18.8871V65.0669H10.8311V67.3507ZM18.8871 67.3507C19.5752 67.3507 20.0583 67.3773 20.4067 67.4358C20.755 67.4944 20.8693 67.5696 20.8981 67.5927C20.9125 67.6043 21.0892 67.7263 21.0892 68.9068H23.3729C23.3729 67.8073 23.2836 66.5802 22.329 65.8128C21.8734 65.4465 21.3273 65.2747 20.7851 65.1836C20.2428 65.0926 19.6049 65.0669 18.8871 65.0669V67.3507ZM21.0892 68.9068C21.0892 69.988 20.9204 70.1079 20.8981 70.1258C20.862 70.1549 20.7401 70.2326 20.395 70.2943C20.0496 70.356 19.5687 70.3869 18.8871 70.3869V72.6707C19.6114 72.6707 20.2515 72.6398 20.7967 72.5424C21.3423 72.445 21.8806 72.2662 22.329 71.9057C23.2757 71.1447 23.3729 69.9535 23.3729 68.9068H21.0892ZM18.8871 70.3869H10.8311V72.6707H18.8871V70.3869ZM11.9729 60.0528V55.1128H9.68918V60.0528H11.9729ZM10.8311 56.2547H18.5071V53.9709H10.8311V56.2547ZM18.5071 56.2547C19.047 56.2547 19.4017 56.2812 19.6417 56.3299C19.8726 56.3767 19.9079 56.4266 19.8911 56.4106C19.8687 56.3894 19.9096 56.4046 19.9522 56.5955C19.9984 56.8031 20.0252 57.1197 20.0252 57.6208H22.3089C22.3089 57.0769 22.2834 56.5575 22.1813 56.0989C22.0754 55.6236 21.8716 55.1424 21.4645 54.7554C21.063 54.3737 20.5734 54.1885 20.0953 54.0916C19.6264 53.9966 19.0881 53.9709 18.5071 53.9709V56.2547ZM20.0252 57.6208C20.0252 58.1017 19.9984 58.401 19.9539 58.5943C19.9137 58.7689 19.8771 58.7772 19.902 58.7542C19.9185 58.7389 19.8801 58.7894 19.6453 58.8362C19.403 58.8845 19.0465 58.9109 18.5071 58.9109V61.1947C19.0886 61.1947 19.6251 61.1689 20.0917 61.0759C20.5659 60.9813 21.0524 60.8014 21.4536 60.4299C21.8632 60.0506 22.0712 59.5768 22.1795 59.1066C22.2834 58.6551 22.3089 58.1469 22.3089 57.6208H20.0252ZM18.5071 58.9109H10.8311V61.1947H18.5071V58.9109ZM59.1685 48.5768H60.3104V47.4349H59.1685V48.5768ZM51.1885 48.5768V47.4349H50.0467V48.5768H51.1885ZM40.8525 48.5768H41.9944V47.4349H40.8525V48.5768ZM32.8725 48.5768V47.4349H31.7307V48.5768H32.8725ZM60.3104 66.0568V48.5768H58.0267V66.0568H60.3104ZM59.1685 47.4349H51.1885V49.7187H59.1685V47.4349ZM50.0467 48.5768V66.0568H52.3304V48.5768H50.0467ZM50.0467 66.0568C50.0467 67.3431 49.9962 68.2983 49.8707 69.0189C49.7454 69.7377 49.5614 70.1234 49.3688 70.3528C49.0046 70.7865 48.2592 71.0709 46.0205 71.0709V73.3547C48.1519 73.3547 49.9904 73.1641 51.1178 71.8213C51.671 71.1624 51.9596 70.3345 52.1205 69.411C52.2811 68.4893 52.3304 67.3734 52.3304 66.0568H50.0467ZM46.0205 71.0709C43.7819 71.0709 43.0364 70.7865 42.6723 70.3528C42.4797 70.1234 42.2957 69.7377 42.1704 69.0189C42.0448 68.2983 41.9944 67.3431 41.9944 66.0568H39.7107C39.7107 67.3734 39.76 68.4893 39.9206 69.411C40.0815 70.3345 40.3701 71.1624 40.9233 71.8213C42.0506 73.1641 43.8892 73.3547 46.0205 73.3547V71.0709ZM41.9944 66.0568V48.5768H39.7107V66.0568H41.9944ZM40.8525 47.4349H32.8725V49.7187H40.8525V47.4349ZM31.7307 48.5768V66.0568H34.0144V48.5768H31.7307ZM31.7307 66.0568C31.7307 68.7367 31.8582 70.9547 32.2508 72.7595C32.6467 74.5797 33.3291 76.0595 34.4948 77.1785C35.6561 78.2934 37.1836 78.941 39.0605 79.3174C40.9276 79.6918 43.2283 79.8147 46.0205 79.8147V77.5309C43.2648 77.5309 41.148 77.4068 39.5096 77.0782C37.881 76.7516 36.815 76.2402 36.0763 75.5311C35.342 74.8261 34.8179 73.8168 34.4823 72.2741C34.1434 70.7158 34.0144 68.6969 34.0144 66.0568H31.7307ZM46.0205 79.8147C48.8128 79.8147 51.1135 79.6918 52.9806 79.3174C54.8575 78.941 56.385 78.2934 57.5463 77.1785C58.712 76.0595 59.3944 74.5797 59.7903 72.7595C60.1829 70.9547 60.3104 68.7367 60.3104 66.0568H58.0267C58.0267 68.6969 57.8977 70.7158 57.5588 72.2741C57.2232 73.8168 56.6991 74.8261 55.9648 75.5311C55.2261 76.2402 54.1601 76.7516 52.5315 77.0782C50.8931 77.4068 48.7763 77.5309 46.0205 77.5309V79.8147ZM90.1181 48.5768L91.1178 49.1285L92.0523 47.4349H90.1181V48.5768ZM81.3781 48.5768V47.4349H80.6788L80.361 48.0577L81.3781 48.5768ZM75.7541 59.5968V60.7387H76.4533L76.7711 60.1159L75.7541 59.5968ZM75.5261 59.5968L74.5047 60.1075L74.8203 60.7387H75.5261V59.5968ZM70.0161 48.5768L71.0374 48.0661L70.7218 47.4349H70.0161V48.5768ZM60.8961 48.5768V47.4349H58.9449L59.9005 49.136L60.8961 48.5768ZM71.6121 67.6528H72.7539V67.354L72.6076 67.0935L71.6121 67.6528ZM71.6121 78.2168H70.4702V79.3587H71.6121V78.2168ZM79.5921 78.2168V79.3587H80.7339V78.2168H79.5921ZM79.5921 67.6528L78.5923 67.1011L78.4502 67.3587V67.6528H79.5921ZM90.1181 47.4349H81.3781V49.7187H90.1181V47.4349ZM80.361 48.0577L74.737 59.0777L76.7711 60.1159L82.3951 49.0959L80.361 48.0577ZM75.7541 58.4549H75.5261V60.7387H75.7541V58.4549ZM76.5474 59.0861L71.0374 48.0661L68.9947 49.0875L74.5047 60.1075L76.5474 59.0861ZM70.0161 47.4349H60.8961V49.7187H70.0161V47.4349ZM59.9005 49.136L70.6165 68.212L72.6076 67.0935L61.8916 48.0175L59.9005 49.136ZM70.4702 67.6528V78.2168H72.7539V67.6528H70.4702ZM71.6121 79.3587H79.5921V77.0749H71.6121V79.3587ZM80.7339 78.2168V67.6528H78.4502V78.2168H80.7339ZM80.5918 68.2045L91.1178 49.1285L89.1183 48.0251L78.5923 67.1011L80.5918 68.2045ZM111.212 78.2168V79.3587H112.354V78.2168H111.212ZM111.212 56.1768V55.0349H110.07V56.1768H111.212ZM111.44 56.1768L112.56 55.9547L112.378 55.0349H111.44V56.1768ZM115.81 78.2168L114.69 78.4389L114.872 79.3587H115.81V78.2168ZM126.45 78.2168V79.3587H127.361L127.563 78.4702L126.45 78.2168ZM131.466 56.1768V55.0349H130.555L130.353 55.9234L131.466 56.1768ZM131.694 56.1768H132.836V55.0349H131.694V56.1768ZM131.694 78.2168H130.552V79.3587H131.694V78.2168ZM139.674 78.2168V79.3587H140.816V78.2168H139.674ZM139.674 48.5768H140.816V47.4349H139.674V48.5768ZM125.728 48.5768V47.4349H124.787L124.607 48.3582L125.728 48.5768ZM121.282 71.3768V72.5187H122.223L122.403 71.5953L121.282 71.3768ZM120.978 71.3768L119.852 71.5663L120.012 72.5187H120.978V71.3768ZM117.14 48.5768L118.266 48.3872L118.106 47.4349H117.14V48.5768ZM103.232 48.5768V47.4349H102.09V48.5768H103.232ZM103.232 78.2168H102.09V79.3587H103.232V78.2168ZM112.354 78.2168V56.1768H110.07V78.2168H112.354ZM111.212 57.3187H111.44V55.0349H111.212V57.3187ZM110.32 56.3989L114.69 78.4389L116.93 77.9947L112.56 55.9547L110.32 56.3989ZM115.81 79.3587H126.45V77.0749H115.81V79.3587ZM127.563 78.4702L132.579 56.4302L130.353 55.9234L125.337 77.9634L127.563 78.4702ZM131.466 57.3187H131.694V55.0349H131.466V57.3187ZM130.552 56.1768V78.2168H132.836V56.1768H130.552ZM131.694 79.3587H139.674V77.0749H131.694V79.3587ZM140.816 78.2168V48.5768H138.532V78.2168H140.816ZM139.674 47.4349H125.728V49.7187H139.674V47.4349ZM124.607 48.3582L120.161 71.1582L122.403 71.5953L126.849 48.7953L124.607 48.3582ZM121.282 70.2349H120.978V72.5187H121.282V70.2349ZM122.104 71.1872L118.266 48.3872L116.014 48.7663L119.852 71.5663L122.104 71.1872ZM117.14 47.4349H103.232V49.7187H117.14V47.4349ZM102.09 48.5768V78.2168H104.374V48.5768H102.09ZM103.232 79.3587H111.212V77.0749H103.232V79.3587ZM142.716 48.5768V47.4349H141.574V48.5768H142.716ZM142.716 78.2168H141.574V79.3587H142.716V78.2168ZM166.998 78.2168V79.3587H168.14V78.2168H166.998ZM166.998 71.3768H168.14V70.2349H166.998V71.3768ZM150.696 71.3768H149.554V72.5187H150.696V71.3768ZM150.696 66.4368V65.2949H149.554V66.4368H150.696ZM165.06 66.4368V67.5787H166.202V66.4368H165.06ZM165.06 59.9768H166.202V58.8349H165.06V59.9768ZM150.696 59.9768H149.554V61.1187H150.696V59.9768ZM150.696 55.4168V54.2749H149.554V55.4168H150.696ZM166.998 55.4168V56.5587H168.14V55.4168H166.998ZM166.998 48.5768H168.14V47.4349H166.998V48.5768ZM141.574 48.5768V78.2168H143.858V48.5768H141.574ZM142.716 79.3587H166.998V77.0749H142.716V79.3587ZM168.14 78.2168V71.3768H165.856V78.2168H168.14ZM166.998 70.2349H150.696V72.5187H166.998V70.2349ZM151.838 71.3768V66.4368H149.554V71.3768H151.838ZM150.696 67.5787H165.06V65.2949H150.696V67.5787ZM166.202 66.4368V59.9768H163.918V66.4368H166.202ZM165.06 58.8349H150.696V61.1187H165.06V58.8349ZM151.838 59.9768V55.4168H149.554V59.9768H151.838ZM150.696 56.5587H166.998V54.2749H150.696V56.5587ZM168.14 55.4168V48.5768H165.856V55.4168H168.14ZM166.998 47.4349H142.716V49.7187H166.998V47.4349Z" fill="white"/>
</svg>
