<svg width="234" height="29" viewBox="0 0 234 29" fill="none" xmlns="http://www.w3.org/2000/svg">
<path d="M29.9801 16.415L30.9801 16.4081L30.9732 15.415H29.9801V16.415ZM22.2801 16.415V15.415H21.2663L21.2802 16.4287L22.2801 16.415ZM22.2801 12.25L21.2802 12.2362L21.2662 13.25H22.2801V12.25ZM29.9801 12.25V13.25H30.9732L30.9801 12.2569L29.9801 12.25ZM29.9801 15.415H22.2801V17.415H29.9801V15.415ZM21.2802 16.4287C21.2974 17.6864 21.2407 18.6073 21.0845 19.2955C20.9328 19.9638 20.7019 20.3488 20.4071 20.6084C20.099 20.8799 19.6156 21.1077 18.7881 21.2588C17.9573 21.4104 16.8671 21.47 15.4201 21.47V23.47C16.8956 23.47 18.1329 23.4114 19.1473 23.2262C20.1649 23.0405 21.0443 22.7126 21.7293 22.1091C22.4277 21.4937 22.8201 20.6844 23.0349 19.7382C23.2451 18.8121 23.2978 17.6986 23.28 16.4013L21.2802 16.4287ZM15.4201 21.47C12.4316 21.47 11.1632 21.1139 10.4914 20.3312C10.1493 19.9326 9.87789 19.3269 9.70088 18.3368C9.52338 17.344 9.45508 16.0511 9.45508 14.35H7.45508C7.45508 16.0789 7.5224 17.516 7.73209 18.6888C7.94227 19.8644 8.30959 20.8599 8.97372 21.6338C10.3145 23.1961 12.5286 23.47 15.4201 23.47V21.47ZM9.45508 14.35C9.45508 12.6489 9.52338 11.356 9.70088 10.3632C9.87789 9.37312 10.1493 8.7674 10.4914 8.36876C11.1632 7.58605 12.4316 7.23 15.4201 7.23V5.23C12.5286 5.23 10.3145 5.50394 8.97372 7.06624C8.30959 7.8401 7.94227 8.83563 7.73209 10.0112C7.5224 11.184 7.45508 12.6211 7.45508 14.35H9.45508ZM15.4201 7.23C16.867 7.23 17.9575 7.28955 18.7886 7.44079C19.6168 7.5915 20.1008 7.81863 20.409 8.08883C20.7034 8.34689 20.9335 8.72871 21.0848 9.39099C21.2407 10.0737 21.2974 10.9874 21.2802 12.2362L23.28 12.2638C23.2978 10.9751 23.2451 9.86758 23.0346 8.94573C22.8194 8.00348 22.4262 7.19748 21.7274 6.58491C21.0425 5.9845 20.1637 5.65818 19.1467 5.47311C18.1327 5.28858 16.8957 5.23 15.4201 5.23V7.23ZM22.2801 13.25H29.9801V11.25H22.2801V13.25ZM30.9801 12.2569C31.0148 7.25822 30.5068 3.78089 27.9951 1.71298C26.7551 0.692173 25.1229 0.0968432 23.0864 -0.252772C21.0503 -0.602309 18.5224 -0.720002 15.4201 -0.720002V1.28C18.4953 1.28 20.8849 1.39855 22.748 1.71839C24.6106 2.03815 25.8594 2.54532 26.7239 3.25702C28.4208 4.65411 29.0154 7.16178 28.9801 12.2431L30.9801 12.2569ZM15.4201 -0.720002C12.3152 -0.720002 9.77378 -0.582737 7.71966 -0.170534C5.65691 0.243401 4.00819 0.949362 2.76239 2.14379C1.51273 3.34192 0.768318 4.93555 0.332098 6.93262C-0.101148 8.91606 -0.244922 11.3659 -0.244922 14.35H1.75508C1.75508 11.4016 1.90005 9.12644 2.28603 7.35941C2.66903 5.60601 3.2743 4.42371 4.14652 3.58746C5.02259 2.74751 6.26793 2.16066 8.11316 1.79037C9.967 1.41836 12.3474 1.28 15.4201 1.28V-0.720002ZM-0.244922 14.35C-0.244922 17.3341 -0.101148 19.7839 0.332098 21.7674C0.768318 23.7644 1.51273 25.3581 2.76239 26.5562C4.00819 27.7506 5.65691 28.4566 7.71966 28.8705C9.77378 29.2827 12.3152 29.42 15.4201 29.42V27.42C12.3474 27.42 9.967 27.2816 8.11316 26.9096C6.26793 26.5393 5.02259 25.9525 4.14652 25.1125C3.2743 24.2763 2.66903 23.094 2.28603 21.3406C1.90005 19.5736 1.75508 17.2984 1.75508 14.35H-0.244922ZM15.4201 29.42C18.5224 29.42 21.0504 29.3023 23.0867 28.9522C25.1235 28.6019 26.756 28.0053 27.996 26.9819C30.507 24.9094 31.0148 21.4236 30.9801 16.4081L28.9801 16.4219C29.0154 21.5214 28.4207 24.0381 26.7229 25.4394C25.8585 26.1528 24.6101 26.6609 22.7477 26.9811C20.8848 27.3014 18.4953 27.42 15.4201 27.42V29.42ZM33.4137 28H32.4137V29H33.4137V28ZM40.7637 28V29H41.7637V28H40.7637ZM40.7637 17.22V16.22H39.7637V17.22H40.7637ZM51.9637 17.22H52.9637V16.22H51.9637V17.22ZM51.9637 28H50.9637V29H51.9637V28ZM59.3137 28V29H60.3137V28H59.3137ZM59.3137 0.699999H60.3137V-0.300001H59.3137V0.699999ZM51.9637 0.699999V-0.300001H50.9637V0.699999H51.9637ZM51.9637 10.92V11.92H52.9637V10.92H51.9637ZM40.7637 10.92H39.7637V11.92H40.7637V10.92ZM40.7637 0.699999H41.7637V-0.300001H40.7637V0.699999ZM33.4137 0.699999V-0.300001H32.4137V0.699999H33.4137ZM33.4137 29H40.7637V27H33.4137V29ZM41.7637 28V17.22H39.7637V28H41.7637ZM40.7637 18.22H51.9637V16.22H40.7637V18.22ZM50.9637 17.22V28H52.9637V17.22H50.9637ZM51.9637 29H59.3137V27H51.9637V29ZM60.3137 28V0.699999H58.3137V28H60.3137ZM59.3137 -0.300001H51.9637V1.7H59.3137V-0.300001ZM50.9637 0.699999V10.92H52.9637V0.699999H50.9637ZM51.9637 9.92H40.7637V11.92H51.9637V9.92ZM41.7637 10.92V0.699999H39.7637V10.92H41.7637ZM40.7637 -0.300001H33.4137V1.7H40.7637V-0.300001ZM32.4137 0.699999V28H34.4137V0.699999H32.4137ZM63.1246 0.699999V-0.300001H62.1246V0.699999H63.1246ZM63.1246 28H62.1246V29H63.1246V28ZM85.4896 28V29H86.4896V28H85.4896ZM85.4896 21.7H86.4896V20.7H85.4896V21.7ZM70.4746 21.7H69.4746V22.7H70.4746V21.7ZM70.4746 17.15V16.15H69.4746V17.15H70.4746ZM83.7046 17.15V18.15H84.7046V17.15H83.7046ZM83.7046 11.2H84.7046V10.2H83.7046V11.2ZM70.4746 11.2H69.4746V12.2H70.4746V11.2ZM70.4746 7V6H69.4746V7H70.4746ZM85.4896 7V8H86.4896V7H85.4896ZM85.4896 0.699999H86.4896V-0.300001H85.4896V0.699999ZM62.1246 0.699999V28H64.1246V0.699999H62.1246ZM63.1246 29H85.4896V27H63.1246V29ZM86.4896 28V21.7H84.4896V28H86.4896ZM85.4896 20.7H70.4746V22.7H85.4896V20.7ZM71.4746 21.7V17.15H69.4746V21.7H71.4746ZM70.4746 18.15H83.7046V16.15H70.4746V18.15ZM84.7046 17.15V11.2H82.7046V17.15H84.7046ZM83.7046 10.2H70.4746V12.2H83.7046V10.2ZM71.4746 11.2V7H69.4746V11.2H71.4746ZM70.4746 8H85.4896V6H70.4746V8ZM86.4896 7V0.699999H84.4896V7H86.4896ZM85.4896 -0.300001H63.1246V1.7H85.4896V-0.300001ZM118.156 16.415L119.156 16.4081L119.149 15.415H118.156V16.415ZM110.456 16.415V15.415H109.442L109.456 16.4287L110.456 16.415ZM110.456 12.25L109.456 12.2362L109.442 13.25H110.456V12.25ZM118.156 12.25V13.25H119.149L119.156 12.2569L118.156 12.25ZM118.156 15.415H110.456V17.415H118.156V15.415ZM109.456 16.4287C109.473 17.6864 109.416 18.6073 109.26 19.2955C109.109 19.9638 108.878 20.3488 108.583 20.6084C108.275 20.8799 107.791 21.1077 106.964 21.2588C106.133 21.4104 105.043 21.47 103.596 21.47V23.47C105.071 23.47 106.309 23.4114 107.323 23.2262C108.341 23.0405 109.22 22.7126 109.905 22.1091C110.603 21.4937 110.996 20.6844 111.211 19.7382C111.421 18.8121 111.474 17.6986 111.456 16.4013L109.456 16.4287ZM103.596 21.47C100.607 21.47 99.3389 21.1139 98.6672 20.3312C98.3251 19.9326 98.0537 19.3269 97.8767 18.3368C97.6992 17.344 97.6309 16.0511 97.6309 14.35H95.6309C95.6309 16.0789 95.6982 17.516 95.9079 18.6888C96.118 19.8644 96.4854 20.8599 97.1495 21.6338C98.4903 23.1961 100.704 23.47 103.596 23.47V21.47ZM97.6309 14.35C97.6309 12.6489 97.6992 11.356 97.8767 10.3632C98.0537 9.37312 98.3251 8.7674 98.6672 8.36876C99.3389 7.58605 100.607 7.23 103.596 7.23V5.23C100.704 5.23 98.4903 5.50394 97.1495 7.06624C96.4854 7.8401 96.118 8.83563 95.9079 10.0112C95.6982 11.184 95.6309 12.6211 95.6309 14.35H97.6309ZM103.596 7.23C105.043 7.23 106.133 7.28955 106.964 7.44079C107.793 7.5915 108.277 7.81863 108.585 8.08883C108.879 8.34689 109.109 8.72871 109.261 9.39099C109.416 10.0737 109.473 10.9874 109.456 12.2362L111.456 12.2638C111.474 10.9751 111.421 9.86758 111.21 8.94573C110.995 8.00348 110.602 7.19748 109.903 6.58491C109.218 5.9845 108.339 5.65818 107.322 5.47311C106.308 5.28858 105.071 5.23 103.596 5.23V7.23ZM110.456 13.25H118.156V11.25H110.456V13.25ZM119.156 12.2569C119.191 7.25822 118.683 3.78089 116.171 1.71298C114.931 0.692173 113.299 0.0968432 111.262 -0.252772C109.226 -0.602309 106.698 -0.720002 103.596 -0.720002V1.28C106.671 1.28 109.061 1.39855 110.924 1.71839C112.786 2.03815 114.035 2.54532 114.9 3.25702C116.597 4.65411 117.191 7.16178 117.156 12.2431L119.156 12.2569ZM103.596 -0.720002C100.491 -0.720002 97.9496 -0.582737 95.8954 -0.170534C93.8327 0.243401 92.184 0.949362 90.9382 2.14379C89.6885 3.34192 88.9441 4.93555 88.5079 6.93262C88.0746 8.91606 87.9309 11.3659 87.9309 14.35H89.9309C89.9309 11.4016 90.0758 9.12644 90.4618 7.35941C90.8448 5.60601 91.4501 4.42371 92.3223 3.58746C93.1984 2.74751 94.4437 2.16066 96.2889 1.79037C98.1428 1.41836 100.523 1.28 103.596 1.28V-0.720002ZM87.9309 14.35C87.9309 17.3341 88.0746 19.7839 88.5079 21.7674C88.9441 23.7644 89.6885 25.3581 90.9382 26.5562C92.184 27.7506 93.8327 28.4566 95.8954 28.8705C97.9496 29.2827 100.491 29.42 103.596 29.42V27.42C100.523 27.42 98.1428 27.2816 96.2889 26.9096C94.4437 26.5393 93.1984 25.9525 92.3223 25.1125C91.4501 24.2763 90.8448 23.094 90.4618 21.3406C90.0758 19.5736 89.9309 17.2984 89.9309 14.35H87.9309ZM103.596 29.42C106.698 29.42 109.226 29.3023 111.262 28.9522C113.299 28.6019 114.932 28.0053 116.172 26.9819C118.683 24.9094 119.191 21.4236 119.156 16.4081L117.156 16.4219C117.191 21.5214 116.596 24.0381 114.899 25.4394C114.034 26.1528 112.786 26.6609 110.924 26.9811C109.061 27.3014 106.671 27.42 103.596 27.42V29.42ZM121.589 28H120.589V29H121.589V28ZM128.939 28V29H129.939V28H128.939ZM128.939 17.045V16.045H127.939V17.045H128.939ZM132.824 17.045L133.695 16.5528L133.408 16.045H132.824V17.045ZM139.019 28L138.149 28.4922L138.436 29H139.019V28ZM147.419 28V29H149.216L148.269 27.473L147.419 28ZM138.564 13.72L137.727 13.1731L137.379 13.706L137.715 14.247L138.564 13.72ZM147.069 0.699999L147.907 1.24688L148.917 -0.300001H147.069V0.699999ZM139.019 0.699999V-0.300001H138.471L138.176 0.162363L139.019 0.699999ZM132.614 10.745V11.745H133.163L133.458 11.2826L132.614 10.745ZM128.939 10.745H127.939V11.745H128.939V10.745ZM128.939 0.699999H129.939V-0.300001H128.939V0.699999ZM121.589 0.699999V-0.300001H120.589V0.699999H121.589ZM121.589 29H128.939V27H121.589V29ZM129.939 28V17.045H127.939V28H129.939ZM128.939 18.045H132.824V16.045H128.939V18.045ZM131.954 17.5372L138.149 28.4922L139.89 27.5078L133.695 16.5528L131.954 17.5372ZM139.019 29H147.419V27H139.019V29ZM148.269 27.473L139.414 13.193L137.715 14.247L146.57 28.527L148.269 27.473ZM139.402 14.2669L147.907 1.24688L146.232 0.153113L137.727 13.1731L139.402 14.2669ZM147.069 -0.300001H139.019V1.7H147.069V-0.300001ZM138.176 0.162363L131.771 10.2074L133.458 11.2826L139.863 1.23763L138.176 0.162363ZM132.614 9.745H128.939V11.745H132.614V9.745ZM129.939 10.745V0.699999H127.939V10.745H129.939ZM128.939 -0.300001H121.589V1.7H128.939V-0.300001ZM120.589 0.699999V28H122.589V0.699999H120.589ZM164.527 7.23C166.021 7.23 167.132 7.30946 167.973 7.50742C168.794 7.7009 169.293 7.9927 169.636 8.37995C169.988 8.77891 170.267 9.38247 170.449 10.3685C170.631 11.3587 170.702 12.6494 170.702 14.35H172.702C172.702 12.6206 172.632 11.1813 172.415 10.0059C172.198 8.82628 171.818 7.82859 171.134 7.05505C170.439 6.2698 169.523 5.81784 168.431 5.5607C167.359 5.30803 166.059 5.23 164.527 5.23V7.23ZM170.702 14.35C170.702 16.0506 170.631 17.3413 170.449 18.3315C170.267 19.3175 169.988 19.9211 169.636 20.32C169.293 20.7073 168.794 20.9991 167.973 21.1926C167.132 21.3905 166.021 21.47 164.527 21.47V23.47C166.059 23.47 167.359 23.392 168.431 23.1393C169.523 22.8822 170.439 22.4302 171.134 21.645C171.818 20.8714 172.198 19.8737 172.415 18.6941C172.632 17.5187 172.702 16.0794 172.702 14.35H170.702ZM164.527 21.47C163.032 21.47 161.921 21.3905 161.08 21.1926C160.259 20.9991 159.76 20.7073 159.418 20.32C159.065 19.9211 158.786 19.3175 158.605 18.3315C158.422 17.3413 158.352 16.0506 158.352 14.35H156.352C156.352 16.0794 156.421 17.5187 156.638 18.6941C156.855 19.8737 157.235 20.8714 157.919 21.645C158.614 22.4302 159.53 22.8822 160.622 23.1393C161.694 23.392 162.994 23.47 164.527 23.47V21.47ZM158.352 14.35C158.352 12.6494 158.422 11.3587 158.605 10.3685C158.786 9.38247 159.065 8.77891 159.418 8.37995C159.76 7.9927 160.259 7.7009 161.08 7.50742C161.921 7.30946 163.032 7.23 164.527 7.23V5.23C162.994 5.23 161.694 5.30803 160.622 5.5607C159.53 5.81784 158.614 6.2698 157.919 7.05505C157.235 7.82859 156.855 8.82628 156.638 10.0059C156.421 11.1813 156.352 12.6206 156.352 14.35H158.352ZM148.652 14.35C148.652 17.3344 148.798 19.7855 149.237 21.7704C149.681 23.7698 150.437 25.3639 151.703 26.5611C152.965 27.7535 154.634 28.4579 156.722 28.8711C158.803 29.2827 161.378 29.42 164.527 29.42V27.42C161.41 27.42 158.993 27.2817 157.11 26.9091C155.235 26.5381 153.968 25.9497 153.077 25.1076C152.191 24.2705 151.578 23.0887 151.19 21.3376C150.799 19.572 150.652 17.2981 150.652 14.35H148.652ZM164.527 29.42C167.675 29.42 170.25 29.2827 172.331 28.8711C174.419 28.4579 176.088 27.7535 177.35 26.5611C178.616 25.3639 179.373 23.7698 179.816 21.7704C180.256 19.7855 180.402 17.3344 180.402 14.35H178.402C178.402 17.2981 178.254 19.572 177.863 21.3376C177.475 23.0887 176.862 24.2705 175.976 25.1076C175.085 25.9497 173.818 26.5381 171.943 26.9091C170.06 27.2817 167.643 27.42 164.527 27.42V29.42ZM180.402 14.35C180.402 11.3656 180.256 8.91451 179.816 6.92963C179.373 4.93022 178.616 3.3361 177.35 2.13886C176.088 0.946527 174.419 0.242146 172.331 -0.171064C170.25 -0.582726 167.675 -0.720002 164.527 -0.720002V1.28C167.643 1.28 170.06 1.41835 171.943 1.7909C173.818 2.16191 175.085 2.75034 175.976 3.59239C176.862 4.42953 177.475 5.61134 177.863 7.3624C178.254 9.12799 178.402 11.4019 178.402 14.35H180.402ZM164.527 -0.720002C161.378 -0.720002 158.803 -0.582726 156.722 -0.171064C154.634 0.242146 152.965 0.946527 151.703 2.13886C150.437 3.3361 149.681 4.93022 149.237 6.92963C148.798 8.91451 148.652 11.3656 148.652 14.35H150.652C150.652 11.4019 150.799 9.12799 151.19 7.3624C151.578 5.61134 152.191 4.42953 153.077 3.59239C153.968 2.75034 155.235 2.16191 157.11 1.7909C158.993 1.41835 161.41 1.28 164.527 1.28V-0.720002ZM207.077 0.699999H208.077V-0.300001H207.077V0.699999ZM199.727 0.699999V-0.300001H198.727V0.699999H199.727ZM190.207 0.699999H191.207V-0.300001H190.207V0.699999ZM182.857 0.699999V-0.300001H181.857V0.699999H182.857ZM208.077 16.8V0.699999H206.077V16.8H208.077ZM207.077 -0.300001H199.727V1.7H207.077V-0.300001ZM198.727 0.699999V16.8H200.727V0.699999H198.727ZM198.727 16.8C198.727 17.9855 198.681 18.8688 198.564 19.5372C198.448 20.2038 198.276 20.5691 198.091 20.7901C197.738 21.2102 197.027 21.47 194.967 21.47V23.47C196.933 23.47 198.601 23.2923 199.622 22.0761C200.124 21.479 200.387 20.7265 200.534 19.8805C200.682 19.0362 200.727 18.012 200.727 16.8H198.727ZM194.967 21.47C192.908 21.47 192.196 21.2102 191.844 20.7901C191.658 20.5691 191.486 20.2038 191.37 19.5372C191.253 18.8688 191.207 17.9855 191.207 16.8H189.207C189.207 18.012 189.252 19.0362 189.4 19.8805C189.547 20.7265 189.81 21.479 190.312 22.0761C191.333 23.2923 193.002 23.47 194.967 23.47V21.47ZM191.207 16.8V0.699999H189.207V16.8H191.207ZM190.207 -0.300001H182.857V1.7H190.207V-0.300001ZM181.857 0.699999V16.8H183.857V0.699999H181.857ZM181.857 16.8C181.857 19.2675 181.975 21.3059 182.335 22.9625C182.698 24.6328 183.323 25.9851 184.387 27.0064C185.447 28.0241 186.844 28.6174 188.567 28.963C190.281 29.3068 192.396 29.42 194.967 29.42V27.42C192.428 27.42 190.474 27.3057 188.96 27.002C187.454 26.7001 186.462 26.2259 185.772 25.5636C185.086 24.9049 184.6 23.9647 184.289 22.5375C183.976 21.0966 183.857 19.2325 183.857 16.8H181.857ZM194.967 29.42C197.538 29.42 199.653 29.3068 201.367 28.963C203.091 28.6174 204.487 28.0241 205.547 27.0064C206.611 25.9851 207.236 24.6328 207.599 22.9625C207.96 21.3059 208.077 19.2675 208.077 16.8H206.077C206.077 19.2325 205.958 21.0966 205.645 22.5375C205.334 23.9647 204.848 24.9049 204.162 25.5636C203.472 26.2259 202.48 26.7001 200.974 27.002C199.46 27.3057 197.506 27.42 194.967 27.42V29.42ZM218.033 28H217.033V29H218.033V28ZM225.383 28V29H226.383V28H225.383ZM225.383 6.65V5.65H224.383V6.65H225.383ZM233.818 6.65V7.65H234.818V6.65H233.818ZM233.818 0.699999H234.818V-0.300001H233.818V0.699999ZM209.668 0.699999V-0.300001H208.668V0.699999H209.668ZM209.668 6.65H208.668V7.65H209.668V6.65ZM218.033 6.65H219.033V5.65H218.033V6.65ZM218.033 29H225.383V27H218.033V29ZM226.383 28V6.65H224.383V28H226.383ZM225.383 7.65H233.818V5.65H225.383V7.65ZM234.818 6.65V0.699999H232.818V6.65H234.818ZM233.818 -0.300001H209.668V1.7H233.818V-0.300001ZM208.668 0.699999V6.65H210.668V0.699999H208.668ZM209.668 7.65H218.033V5.65H209.668V7.65ZM217.033 6.65V28H219.033V6.65H217.033Z" fill="white"/>
</svg>
