<svg width="122" height="21" viewBox="0 0 122 21" fill="none" xmlns="http://www.w3.org/2000/svg">
<path d="M11.7802 14.96C12.1002 14.112 12.4922 13.384 12.9562 12.776H0.0921876V10.808H12.9562C12.5082 10.2 12.1242 9.472 11.8042 8.624H13.6282C14.6202 9.792 15.7082 10.68 16.8922 11.288V12.32C15.7082 12.896 14.6202 13.776 13.6282 14.96H11.7802ZM48.4475 12.056H43.1675C43.2155 15.56 42.4715 16.208 38.4635 16.208C34.4315 16.208 33.6875 15.344 33.6875 10.64C33.6875 5.936 34.4315 5.072 38.4635 5.072C42.4715 5.072 43.2155 5.72 43.1675 9.2H48.4475C48.4955 2.288 46.9355 0.991999 38.4635 0.991999C29.9915 0.991999 28.4075 2.504 28.4075 10.64C28.4075 18.776 29.9915 20.288 38.4635 20.288C46.9355 20.288 48.4955 18.992 48.4475 12.056ZM50.1163 1.28V20H63.5323V15.68H55.1562V1.28H50.1163ZM74.5841 5.072C78.7361 5.072 79.5041 5.936 79.5041 10.64C79.5041 15.344 78.7361 16.208 74.5841 16.208C70.4321 16.208 69.6641 15.344 69.6641 10.64C69.6641 5.936 70.4321 5.072 74.5841 5.072ZM64.3841 10.64C64.3841 18.776 65.9921 20.288 74.5841 20.288C83.1761 20.288 84.7841 18.776 84.7841 10.64C84.7841 2.504 83.1761 0.991999 74.5841 0.991999C65.9921 0.991999 64.3841 2.504 64.3841 10.64ZM91.2678 13.832V13.592H85.9878V13.832C85.9878 19.28 87.3318 20.288 95.1558 20.288C102.764 20.288 104.036 19.424 104.036 14.912C104.036 11.192 103.556 10.376 100.94 9.656C99.3078 9.2 97.9878 8.912 95.1558 8.36C92.1078 7.928 91.3878 7.664 91.3878 6.704C91.3878 5.36 91.9638 5.072 95.1558 5.072C98.0838 5.072 98.5398 5.48 98.5398 7.472V7.712H103.82V7.472C103.82 2 102.452 0.991999 95.1558 0.991999C88.0518 0.991999 86.3478 2.12 86.3478 6.2C86.3478 10.16 86.9478 11.024 90.0918 11.768C92.6118 12.344 93.5478 12.56 95.1558 12.824C98.1078 13.4 98.9958 13.664 98.9958 14.696C98.9958 15.968 98.3478 16.208 95.1558 16.208C91.9158 16.208 91.2678 15.92 91.2678 13.832ZM105.71 1.28V20H121.046V15.68H110.75V12.56H119.822V8.48H110.75V5.6H121.046V1.28H105.71Z" fill="white"/>
</svg>
