<svg width="152" height="73" viewBox="0 0 152 73" fill="none" xmlns="http://www.w3.org/2000/svg">
<path d="M54.8496 29.671V45.271H67.6296V41.671H59.0496V39.071H66.6096V35.671H59.0496V33.271H67.6296V29.671H54.8496Z" fill="white"/>
<path d="M73.2242 40.131V39.931H68.8242V40.131C68.8242 44.671 69.9442 45.511 76.464 45.511C82.804 45.511 83.864 44.791 83.864 41.031C83.864 37.931 83.464 37.251 81.284 36.651C79.924 36.271 78.824 36.031 76.464 35.571C73.9242 35.211 73.3242 34.991 73.3242 34.191C73.3242 33.071 73.8042 32.831 76.464 32.831C78.904 32.831 79.284 33.171 79.284 34.831V35.031H83.684V34.831C83.684 30.271 82.544 29.431 76.464 29.431C70.5442 29.431 69.1242 30.371 69.1242 33.771C69.1242 37.071 69.6242 37.791 72.2442 38.411C74.3442 38.891 75.124 39.071 76.464 39.291C78.924 39.771 79.664 39.991 79.664 40.851C79.664 41.911 79.124 42.111 76.464 42.111C73.7642 42.111 73.2242 41.871 73.2242 40.131Z" fill="white"/>
<path d="M89.3386 45.271H93.5386V33.071H98.3586V29.671H84.5586V33.071H89.3386V45.271Z" fill="white"/>
<path fill-rule="evenodd" clip-rule="evenodd" d="M129.098 60.467C142.724 54.012 150.5 45.39 150.5 36.366C150.5 27.342 142.724 18.72 129.098 12.266C115.587 5.86596 96.8149 1.86597 75.9999 1.86597C55.1847 1.86597 36.4134 5.86596 22.902 12.266C9.2762 18.72 1.5 27.342 1.5 36.366C1.5 45.39 9.2762 54.012 22.902 60.467C36.4134 66.867 55.1847 70.866 75.9999 70.866C96.8149 70.866 115.587 66.867 129.098 60.467ZM75.9999 72.366C117.974 72.366 152 56.249 152 36.366C152 16.484 117.974 0.365967 75.9999 0.365967C34.0264 0.365967 0 16.484 0 36.366C0 56.249 34.0264 72.366 75.9999 72.366Z" fill="white"/>
</svg>
