<svg width="313" height="177" viewBox="0 0 313 177" fill="none" xmlns="http://www.w3.org/2000/svg">
<path d="M311.5 18.6787C311.5 19.0854 311.329 19.5471 310.876 20.074C310.419 20.6059 309.704 21.1666 308.706 21.7432C306.708 22.8962 303.714 24.0333 299.789 25.1296C291.95 27.3189 280.572 29.299 266.471 30.9649C238.278 34.2954 199.308 36.3574 156.25 36.3574C113.192 36.3574 74.222 34.2954 46.029 30.9649C31.928 29.299 20.55 27.3189 12.711 25.1296C8.786 24.0333 5.79201 22.8962 3.79401 21.7432C2.79601 21.1666 2.08099 20.6059 1.62399 20.074C1.17099 19.5471 1 19.0854 1 18.6787C1 18.272 1.17099 17.8103 1.62399 17.2834C2.08099 16.7515 2.79601 16.1907 3.79401 15.6142C5.79201 14.4612 8.786 13.324 12.711 12.2278C20.55 10.0385 31.928 8.0583 46.029 6.3925C74.222 3.0619 113.192 1 156.25 1C199.308 1 238.278 3.0619 266.471 6.3925C280.572 8.0583 291.95 10.0385 299.789 12.2278C303.714 13.324 306.708 14.4612 308.706 15.6142C309.704 16.1907 310.419 16.7515 310.876 17.2834C311.329 17.8103 311.5 18.272 311.5 18.6787Z" stroke="white" stroke-width="1.5"/>
<path d="M311.5 64.4373C311.5 66.0123 310.591 67.6643 308.593 69.3753C306.6 71.0813 303.617 72.7613 299.704 74.3813C291.884 77.6203 280.523 80.5533 266.429 83.0223C238.253 87.9583 199.299 91.0163 156.25 91.0163C113.201 91.0163 74.247 87.9583 46.071 83.0223C31.977 80.5533 20.616 77.6203 12.796 74.3813C8.88301 72.7613 5.9 71.0813 3.907 69.3753C1.909 67.6643 1 66.0123 1 64.4373C1 62.8623 1.909 61.2093 3.907 59.4993C5.9 57.7933 8.88301 56.1131 12.796 54.4923C20.616 51.2535 31.977 48.3205 46.071 45.8514C74.247 40.9153 113.201 37.8582 156.25 37.8582C199.299 37.8582 238.253 40.9153 266.429 45.8514C280.523 48.3205 291.884 51.2535 299.704 54.4923C303.617 56.1131 306.6 57.7933 308.593 59.4993C310.591 61.2093 311.5 62.8623 311.5 64.4373Z" stroke="white" stroke-width="1.5"/>
<path d="M311.5 134.172C311.5 139.629 307.422 145.011 299.585 150.048C291.783 155.062 280.442 159.607 266.362 163.434C238.212 171.087 199.281 175.829 156.25 175.829C113.219 175.829 74.288 171.087 46.138 163.434C32.058 159.607 20.717 155.062 12.915 150.048C5.07799 145.011 1 139.629 1 134.172C1 128.715 5.07799 123.333 12.915 118.296C20.717 113.281 32.058 108.737 46.138 104.909C74.288 97.2571 113.219 92.5151 156.25 92.5151C199.281 92.5151 238.212 97.2571 266.362 104.909C280.442 108.737 291.783 113.281 299.585 118.296C307.422 123.333 311.5 128.715 311.5 134.172Z" stroke="white" stroke-width="1.5"/>
<path d="M156.25 18.48V133.937" stroke="white" stroke-width="1.5"/>
</svg>
