<svg width="192" height="30" viewBox="0 0 192 30" fill="none" xmlns="http://www.w3.org/2000/svg">
<path d="M6.36039 15.9578C6.52689 14.0876 7.72571 13.1872 9.99014 13.1872C13.0538 13.1872 13.6199 13.8798 13.6199 16.9621V19.5942C13.6199 22.6418 13.0538 23.3345 9.99014 23.3345C7.75901 23.3345 6.56019 22.6418 6.36039 21.2912V15.9578ZM0 0.927246V28.6332H6.16059V23.6462C6.8266 27.2479 8.99113 29.0488 12.6875 29.0488C18.8814 29.0488 20.28 27.4904 20.28 19.7327V16.7543C20.28 8.99662 18.9147 7.43816 13.0205 7.43816C9.02443 7.43816 7.093 8.37323 6.32709 11.5941V0.927246H0Z" fill="#FAFAFA"/>
<path d="M29.0898 22.7107C29.0898 21.3947 29.4228 21.1523 31.1544 21.1523L36.3826 21.1176V22.0181C36.3826 23.6804 35.3503 24.3038 32.5197 24.3731H32.1867C29.5893 24.3731 29.0898 24.096 29.0898 22.7107ZM33.885 7.43781H32.3532C24.5609 7.43781 23.0957 8.54605 23.0957 14.2604V15.0916H29.4228C29.3562 12.7019 29.9223 12.2864 33.0525 12.2864C35.8498 12.2864 36.3826 12.7019 36.3826 15.0916V16.2691L30.0555 16.3037C23.6285 16.3037 22.4297 17.3081 22.4297 22.6415C22.4297 28.2173 23.6285 29.2563 30.1554 29.0485C33.2856 29.0138 35.5168 27.7324 36.3826 24.9618V28.6329H42.7097V14.6414C42.7097 8.58068 41.3111 7.43781 33.885 7.43781Z" fill="#FAFAFA"/>
<path d="M50.8408 22.122V21.6718H44.8467V22.122C44.8467 27.9402 46.2453 29.0485 53.5714 29.0485H55.1032C63.4949 29.0485 65.0268 28.0788 65.0268 23.0917C65.0268 19.8709 64.2608 18.0007 61.064 17.031C59.3657 16.5115 57.8339 16.0959 54.5704 15.5418C52.4059 15.1955 51.8065 14.7799 51.8065 13.9141C51.8065 12.6327 52.4725 12.2864 54.9367 12.2864C57.5009 12.2864 58.2002 12.7712 58.2002 14.4682V15.0916H64.5273V14.4682C64.5273 8.54604 63.1286 7.43781 55.7026 7.43781H54.1708C46.5783 7.43781 45.1464 8.40751 45.1464 13.7063C45.1464 16.4769 45.8457 18.0353 48.5763 19.109C50.5744 19.9055 53.6047 20.3904 54.7702 20.6328C57.7007 21.1869 58.4 21.741 58.4 22.6068C58.4 23.8536 57.6341 24.1999 54.7702 24.1999C51.6733 24.1999 50.8408 23.7497 50.8408 22.122Z" fill="#FAFAFA"/>
<path d="M73.6025 15.6111V15.5072C73.6025 12.8058 74.2019 12.2864 77.4653 12.2864C80.5623 12.2864 81.2283 12.8058 81.2616 15.6111H73.6025ZM87.7552 22.0181H81.0951C81.0951 23.819 80.529 24.1999 77.4653 24.1999C74.2019 24.1999 73.6025 23.6112 73.6025 20.5635V20.4596H87.9217V17.2734V17.2388C87.9217 8.99627 86.3899 7.43781 78.1979 7.43781H76.6661C68.4742 7.43781 66.9424 9.1348 66.9424 18.2431C66.9424 27.3515 68.4742 29.0485 76.6661 29.0485H78.1979C86.2567 29.0485 87.7552 27.9402 87.7552 22.0181Z" fill="#FAFAFA"/>
<path d="M90.7246 7.8534V28.6329H97.0517V16.6154C97.0517 14.1911 98.1506 12.979 100.348 12.979C102.913 12.979 103.379 13.4985 103.379 16.1998V28.6329H109.673L109.639 16.4076C109.706 14.1219 110.805 12.979 112.936 12.979C115.467 12.979 115.933 13.4985 115.933 16.1998V28.6329H122.227L122.194 15.1955C122.194 8.68458 121.061 7.43781 114.967 7.43781C111.604 7.43781 109.573 8.96164 108.84 12.2517C108.574 8.30362 107.475 7.43781 102.446 7.43781C99.4493 7.43781 97.751 8.71921 97.0517 11.8361V7.8534H90.7246Z" fill="#FAFAFA"/>
<path d="M131.343 15.6111V15.5072C131.343 12.8058 131.942 12.2864 135.206 12.2864C138.303 12.2864 138.969 12.8058 139.002 15.6111H131.343ZM145.495 22.0181H138.835C138.835 23.819 138.269 24.1999 135.206 24.1999C131.942 24.1999 131.343 23.6112 131.343 20.5635V20.4596H145.662V17.2734V17.2388C145.662 8.99627 144.13 7.43781 135.938 7.43781H134.406C126.214 7.43781 124.683 9.1348 124.683 18.2431C124.683 27.3515 126.214 29.0485 134.406 29.0485H135.938C143.997 29.0485 145.495 27.9402 145.495 22.0181Z" fill="#FAFAFA"/>
<path d="M148.396 7.8534V28.6329H154.723V16.2691C154.756 14.0526 155.921 12.979 158.219 12.979C161.15 12.979 161.682 13.5678 161.682 16.7539V28.6329H168.009L167.976 15.1955C167.976 8.68458 166.877 7.43781 161.083 7.43781C157.453 7.43781 155.489 8.71921 154.723 12.0786V7.8534H148.396Z" fill="#FAFAFA"/>
<path d="M183.937 22.7455H180.241C178.31 22.7455 177.943 22.3991 177.943 20.6329V13.3947H183.604V7.85349H177.943V3.42053H171.949V7.85349H169.618V13.3947H171.616V21.6372C171.616 27.5248 172.915 28.633 179.608 28.633H183.937V22.7455Z" fill="#FAFAFA"/>
<path d="M192 22.7455H186.339V28.633H192V22.7455Z" fill="#FAFAFA"/>
</svg>
