<svg width="339" height="40" viewBox="0 0 339 40" fill="none" xmlns="http://www.w3.org/2000/svg">
<path d="M40.1606 23.112L41.1606 23.1051L41.1537 22.112H40.1606V23.112ZM29.6006 23.112V22.112H28.5868L28.6007 23.1257L29.6006 23.112ZM29.6006 17.4L28.6007 17.3862L28.5867 18.4H29.6006V17.4ZM40.1606 17.4V18.4H41.1537L41.1606 17.4069L40.1606 17.4ZM40.1606 22.112H29.6006V24.112H40.1606V22.112ZM28.6007 23.1257C28.6244 24.8579 28.5474 26.1566 28.3232 27.1447C28.1035 28.1127 27.7567 28.7195 27.2776 29.1417C26.785 29.5756 26.0485 29.9066 24.8783 30.1203C23.7048 30.3345 22.1824 30.416 20.1926 30.416V32.416C22.2109 32.416 23.8804 32.3355 25.2375 32.0877C26.5978 31.8394 27.7302 31.4084 28.5997 30.6423C29.4825 29.8645 29.9908 28.8333 30.2736 27.5873C30.5518 26.3614 30.6248 24.8701 30.6005 23.0983L28.6007 23.1257ZM20.1926 30.416C16.1121 30.416 14.197 29.9429 13.1515 28.7247C12.6225 28.1084 12.2324 27.2053 11.9835 25.813C11.7341 24.418 11.6406 22.6181 11.6406 20.28H9.64062C9.64062 22.6459 9.73314 24.59 10.0147 26.165C10.2968 27.7427 10.7828 29.0356 11.6338 30.0273C13.3483 32.0251 16.2091 32.416 20.1926 32.416V30.416ZM11.6406 20.28C11.6406 17.9419 11.7341 16.142 11.9835 14.747C12.2324 13.3547 12.6225 12.4516 13.1515 11.8353C14.197 10.6171 16.1121 10.144 20.1926 10.144V8.144C16.2091 8.144 13.3483 8.53494 11.6338 10.5327C10.7828 11.5244 10.2968 12.8173 10.0147 14.395C9.73314 15.97 9.64062 17.9141 9.64062 20.28H11.6406ZM20.1926 10.144C22.1823 10.144 23.705 10.2255 24.8788 10.4391C26.0497 10.6522 26.7868 10.9821 27.2794 11.414C27.7582 11.8337 28.1042 12.4361 28.3235 13.3964C28.5474 14.377 28.6244 15.6662 28.6007 17.3862L30.6005 17.4138C30.6248 15.6538 30.5518 14.171 30.2733 12.9511C29.9901 11.7109 29.481 10.6843 28.5978 9.91004C27.7285 9.14793 26.5966 8.71884 25.2369 8.47141C23.8802 8.22451 22.211 8.144 20.1926 8.144V10.144ZM29.6006 18.4H40.1606V16.4H29.6006V18.4ZM41.1606 17.4069C41.2083 10.5362 40.4956 5.94739 37.2022 3.23598C35.5715 1.89342 33.4043 1.09334 30.6436 0.619414C27.8833 0.145566 24.4422 -0.0160027 20.1926 -0.0160027V1.984C24.415 1.984 27.7179 2.14643 30.3052 2.59058C32.892 3.03465 34.6758 3.74657 35.931 4.78002C38.4096 6.82061 39.2089 10.4398 39.1607 17.3931L41.1606 17.4069ZM20.1926 -0.0160027C15.9405 -0.0160027 12.485 0.172449 9.70513 0.730293C6.91662 1.28987 4.73042 2.23592 3.09056 3.80816C1.44684 5.3841 0.451771 7.49327 -0.13659 10.1868C-0.721976 12.8668 -0.919375 16.1942 -0.919375 20.28H1.08063C1.08063 16.2298 1.27923 13.0772 1.81734 10.6136C2.35248 8.16373 3.20841 6.46589 4.47469 5.25183C5.74483 4.03407 7.52763 3.20713 10.0986 2.6912C12.6782 2.17355 15.9727 1.984 20.1926 1.984V-0.0160027ZM-0.919375 20.28C-0.919375 24.3658 -0.721976 27.6932 -0.13659 30.3731C0.451771 33.0667 1.44684 35.1759 3.09056 36.7518C4.73042 38.3241 6.91662 39.2701 9.70513 39.8297C12.485 40.3875 15.9405 40.576 20.1926 40.576V38.576C15.9727 38.576 12.6782 38.3865 10.0986 37.8688C7.52763 37.3529 5.74483 36.5259 4.47469 35.3082C3.20841 34.0941 2.35248 32.3963 1.81734 29.9464C1.27923 27.4828 1.08063 24.3302 1.08063 20.28H-0.919375ZM20.1926 40.576C24.4422 40.576 27.8834 40.4144 30.6438 39.9398C33.4048 39.465 35.5723 38.6633 37.2032 37.3172C40.4958 34.5996 41.2083 29.9991 41.1606 23.1051L39.1607 23.1189C39.2089 30.0969 38.4095 33.7284 35.9301 35.7748C34.6749 36.8107 32.8914 37.524 30.3049 37.9687C27.7178 38.4136 24.4151 38.576 20.1926 38.576V40.576ZM47.4981 39H46.4981V40H47.4981V39ZM57.5781 39V40H58.5781V39H57.5781ZM57.5781 24.216V23.216H56.5781V24.216H57.5781ZM72.9381 24.216H73.9381V23.216H72.9381V24.216ZM72.9381 39H71.9381V40H72.9381V39ZM83.0181 39V40H84.0181V39H83.0181ZM83.0181 1.56H84.0181V0.559999H83.0181V1.56ZM72.9381 1.56V0.559999H71.9381V1.56H72.9381ZM72.9381 15.576V16.576H73.9381V15.576H72.9381ZM57.5781 15.576H56.5781V16.576H57.5781V15.576ZM57.5781 1.56H58.5781V0.559999H57.5781V1.56ZM47.4981 1.56V0.559999H46.4981V1.56H47.4981ZM47.4981 40H57.5781V38H47.4981V40ZM58.5781 39V24.216H56.5781V39H58.5781ZM57.5781 25.216H72.9381V23.216H57.5781V25.216ZM71.9381 24.216V39H73.9381V24.216H71.9381ZM72.9381 40H83.0181V38H72.9381V40ZM84.0181 39V1.56H82.0181V39H84.0181ZM83.0181 0.559999H72.9381V2.56H83.0181V0.559999ZM71.9381 1.56V15.576H73.9381V1.56H71.9381ZM72.9381 14.576H57.5781V16.576H72.9381V14.576ZM58.5781 15.576V1.56H56.5781V15.576H58.5781ZM57.5781 0.559999H47.4981V2.56H57.5781V0.559999ZM46.4981 1.56V39H48.4981V1.56H46.4981ZM90.8731 1.56V0.559999H89.8731V1.56H90.8731ZM90.8731 39H89.8731V40H90.8731V39ZM121.545 39V40H122.545V39H121.545ZM121.545 30.36H122.545V29.36H121.545V30.36ZM100.953 30.36H99.9531V31.36H100.953V30.36ZM100.953 24.12V23.12H99.9531V24.12H100.953ZM119.097 24.12V25.12H120.097V24.12H119.097ZM119.097 15.96H120.097V14.96H119.097V15.96ZM100.953 15.96H99.9531V16.96H100.953V15.96ZM100.953 10.2V9.2H99.9531V10.2H100.953ZM121.545 10.2V11.2H122.545V10.2H121.545ZM121.545 1.56H122.545V0.559999H121.545V1.56ZM89.8731 1.56V39H91.8731V1.56H89.8731ZM90.8731 40H121.545V38H90.8731V40ZM122.545 39V30.36H120.545V39H122.545ZM121.545 29.36H100.953V31.36H121.545V29.36ZM101.953 30.36V24.12H99.9531V30.36H101.953ZM100.953 25.12H119.097V23.12H100.953V25.12ZM120.097 24.12V15.96H118.097V24.12H120.097ZM119.097 14.96H100.953V16.96H119.097V14.96ZM101.953 15.96V10.2H99.9531V15.96H101.953ZM100.953 11.2H121.545V9.2H100.953V11.2ZM122.545 10.2V1.56H120.545V10.2H122.545ZM121.545 0.559999H90.8731V2.56H121.545V0.559999ZM168.973 23.112L169.973 23.1051L169.966 22.112H168.973V23.112ZM158.413 23.112V22.112H157.399L157.413 23.1257L158.413 23.112ZM158.413 17.4L157.413 17.3862L157.399 18.4H158.413V17.4ZM168.973 17.4V18.4H169.966L169.973 17.4069L168.973 17.4ZM168.973 22.112H158.413V24.112H168.973V22.112ZM157.413 23.1257C157.437 24.8579 157.36 26.1566 157.136 27.1447C156.916 28.1127 156.569 28.7195 156.09 29.1417C155.598 29.5756 154.861 29.9066 153.691 30.1203C152.517 30.3345 150.995 30.416 149.005 30.416V32.416C151.023 32.416 152.693 32.3355 154.05 32.0877C155.41 31.8394 156.543 31.4084 157.412 30.6423C158.295 29.8645 158.803 28.8333 159.086 27.5873C159.364 26.3614 159.437 24.8701 159.413 23.0983L157.413 23.1257ZM149.005 30.416C144.925 30.416 143.009 29.9429 141.964 28.7247C141.435 28.1084 141.045 27.2053 140.796 25.813C140.547 24.418 140.453 22.6181 140.453 20.28H138.453C138.453 22.6459 138.546 24.59 138.827 26.165C139.109 27.7427 139.595 29.0356 140.446 30.0273C142.161 32.0251 145.022 32.416 149.005 32.416V30.416ZM140.453 20.28C140.453 17.9419 140.547 16.142 140.796 14.747C141.045 13.3547 141.435 12.4516 141.964 11.8353C143.009 10.6171 144.925 10.144 149.005 10.144V8.144C145.022 8.144 142.161 8.53494 140.446 10.5327C139.595 11.5244 139.109 12.8173 138.827 14.395C138.546 15.97 138.453 17.9141 138.453 20.28H140.453ZM149.005 10.144C150.995 10.144 152.518 10.2255 153.691 10.4391C154.862 10.6522 155.599 10.9821 156.092 11.414C156.571 11.8337 156.917 12.4361 157.136 13.3964C157.36 14.377 157.437 15.6662 157.413 17.3862L159.413 17.4138C159.437 15.6538 159.364 14.171 159.086 12.9511C158.803 11.7109 158.294 10.6843 157.41 9.91004C156.541 9.14793 155.409 8.71884 154.049 8.47141C152.693 8.22451 151.023 8.144 149.005 8.144V10.144ZM158.413 18.4H168.973V16.4H158.413V18.4ZM169.973 17.4069C170.021 10.5362 169.308 5.94739 166.015 3.23598C164.384 1.89342 162.217 1.09334 159.456 0.619414C156.696 0.145566 153.255 -0.0160027 149.005 -0.0160027V1.984C153.228 1.984 156.53 2.14643 159.118 2.59058C161.704 3.03465 163.488 3.74657 164.744 4.78002C167.222 6.82061 168.021 10.4398 167.973 17.3931L169.973 17.4069ZM149.005 -0.0160027C144.753 -0.0160027 141.298 0.172449 138.518 0.730293C135.729 1.28987 133.543 2.23592 131.903 3.80816C130.259 5.3841 129.264 7.49327 128.676 10.1868C128.091 12.8668 127.893 16.1942 127.893 20.28H129.893C129.893 16.2298 130.092 13.0772 130.63 10.6136C131.165 8.16373 132.021 6.46589 133.287 5.25183C134.557 4.03407 136.34 3.20713 138.911 2.6912C141.491 2.17355 144.785 1.984 149.005 1.984V-0.0160027ZM127.893 20.28C127.893 24.3658 128.091 27.6932 128.676 30.3731C129.264 33.0667 130.259 35.1759 131.903 36.7518C133.543 38.3241 135.729 39.2701 138.518 39.8297C141.298 40.3875 144.753 40.576 149.005 40.576V38.576C144.785 38.576 141.491 38.3865 138.911 37.8688C136.34 37.3529 134.557 36.5259 133.287 35.3082C132.021 34.0941 131.165 32.3963 130.63 29.9464C130.092 27.4828 129.893 24.3302 129.893 20.28H127.893ZM149.005 40.576C153.255 40.576 156.696 40.4144 159.456 39.9398C162.217 39.465 164.385 38.6633 166.016 37.3172C169.308 34.5996 170.021 29.9991 169.973 23.1051L167.973 23.1189C168.021 30.0969 167.222 33.7284 164.743 35.7748C163.487 36.8107 161.704 37.524 159.117 37.9687C156.53 38.4136 153.228 38.576 149.005 38.576V40.576ZM176.311 39H175.311V40H176.311V39ZM186.391 39V40H187.391V39H186.391ZM186.391 23.976V22.976H185.391V23.976H186.391ZM191.719 23.976L192.589 23.4838L192.302 22.976H191.719V23.976ZM200.215 39L199.344 39.4922L199.631 40H200.215V39ZM211.735 39V40H213.531L212.584 38.473L211.735 39ZM199.591 19.416L198.753 18.8691L198.405 19.402L198.741 19.943L199.591 19.416ZM211.255 1.56L212.092 2.10688L213.102 0.559999H211.255V1.56ZM200.215 1.56V0.559999H199.666L199.371 1.02236L200.215 1.56ZM191.431 15.336V16.336H191.979L192.274 15.8736L191.431 15.336ZM186.391 15.336H185.391V16.336H186.391V15.336ZM186.391 1.56H187.391V0.559999H186.391V1.56ZM176.311 1.56V0.559999H175.311V1.56H176.311ZM176.311 40H186.391V38H176.311V40ZM187.391 39V23.976H185.391V39H187.391ZM186.391 24.976H191.719V22.976H186.391V24.976ZM190.848 24.4682L199.344 39.4922L201.085 38.5078L192.589 23.4838L190.848 24.4682ZM200.215 40H211.735V38H200.215V40ZM212.584 38.473L200.44 18.889L198.741 19.943L210.885 39.527L212.584 38.473ZM200.428 19.9629L212.092 2.10688L210.417 1.01311L198.753 18.8691L200.428 19.9629ZM211.255 0.559999H200.215V2.56H211.255V0.559999ZM199.371 1.02236L190.587 14.7984L192.274 15.8736L201.058 2.09763L199.371 1.02236ZM191.431 14.336H186.391V16.336H191.431V14.336ZM187.391 15.336V1.56H185.391V15.336H187.391ZM186.391 0.559999H176.311V2.56H186.391V0.559999ZM175.311 1.56V39H177.311V1.56H175.311ZM237.824 10.144C239.881 10.144 241.44 10.2527 242.636 10.5344C243.812 10.8115 244.574 11.2414 245.109 11.8465C245.655 12.4632 246.055 13.3641 246.311 14.7523C246.568 16.1447 246.664 17.9424 246.664 20.28H248.664C248.664 17.9136 248.569 15.9673 248.278 14.3897C247.986 12.8079 247.484 11.5128 246.607 10.5215C245.721 9.51855 244.541 8.92847 243.094 8.58764C241.667 8.25128 239.919 8.144 237.824 8.144V10.144ZM246.664 20.28C246.664 22.6176 246.568 24.4153 246.311 25.8077C246.055 27.1959 245.655 28.0968 245.109 28.7135C244.574 29.3186 243.812 29.7485 242.636 30.0256C241.44 30.3073 239.881 30.416 237.824 30.416V32.416C239.919 32.416 241.667 32.3087 243.094 31.9724C244.541 31.6315 245.721 31.0415 246.607 30.0385C247.484 29.0472 247.986 27.7521 248.278 26.1703C248.569 24.5927 248.664 22.6464 248.664 20.28H246.664ZM237.824 30.416C235.767 30.416 234.209 30.3073 233.013 30.0256C231.836 29.7485 231.074 29.3186 230.539 28.7135C229.994 28.0968 229.593 27.1959 229.338 25.8077C229.081 24.4153 228.984 22.6176 228.984 20.28H226.984C226.984 22.6464 227.08 24.5927 227.371 26.1703C227.662 27.7521 228.165 29.0472 229.041 30.0385C229.928 31.0415 231.107 31.6315 232.554 31.9724C233.982 32.3087 235.729 32.416 237.824 32.416V30.416ZM228.984 20.28C228.984 17.9424 229.081 16.1447 229.338 14.7523C229.593 13.3641 229.994 12.4632 230.539 11.8465C231.074 11.2414 231.836 10.8115 233.013 10.5344C234.209 10.2527 235.767 10.144 237.824 10.144V8.144C235.729 8.144 233.982 8.25128 232.554 8.58764C231.107 8.92847 229.928 9.51855 229.041 10.5215C228.165 11.5128 227.662 12.8079 227.371 14.3897C227.08 15.9673 226.984 17.9136 226.984 20.28H228.984ZM216.424 20.28C216.424 24.3661 216.625 27.6947 217.219 30.3761C217.817 33.0721 218.827 35.1817 220.493 36.7568C222.155 38.3269 224.369 39.2714 227.193 39.8302C230.01 40.3875 233.513 40.576 237.824 40.576V38.576C233.544 38.576 230.201 38.3865 227.581 37.8683C224.97 37.3516 223.158 36.5231 221.867 35.3032C220.582 34.0883 219.714 32.3909 219.172 29.9434C218.626 27.4813 218.424 24.3298 218.424 20.28H216.424ZM237.824 40.576C242.136 40.576 245.639 40.3875 248.455 39.8302C251.28 39.2714 253.494 38.3269 255.155 36.7568C256.822 35.1817 257.832 33.0721 258.43 30.3761C259.024 27.6947 259.224 24.3661 259.224 20.28H257.224C257.224 24.3298 257.023 27.4813 256.477 29.9434C255.935 32.3909 255.067 34.0883 253.781 35.3032C252.491 36.5231 250.679 37.3516 248.067 37.8683C245.448 38.3865 242.105 38.576 237.824 38.576V40.576ZM259.224 20.28C259.224 16.1938 259.024 12.8653 258.43 10.1839C257.832 7.48794 256.822 5.37828 255.155 3.80323C253.494 2.23309 251.28 1.28861 248.455 0.729763C245.639 0.172461 242.136 -0.0160027 237.824 -0.0160027V1.984C242.105 1.984 245.448 2.17353 248.067 2.69173C250.679 3.20838 252.491 4.03691 253.781 5.25677C255.067 6.47171 255.935 8.16905 256.477 10.6166C257.023 13.0787 257.224 16.2302 257.224 20.28H259.224ZM237.824 -0.0160027C233.513 -0.0160027 230.01 0.172461 227.193 0.729763C224.369 1.28861 222.155 2.23309 220.493 3.80323C218.827 5.37828 217.817 7.48794 217.219 10.1839C216.625 12.8653 216.424 16.1938 216.424 20.28H218.424C218.424 16.2302 218.626 13.0787 219.172 10.6166C219.714 8.16905 220.582 6.47171 221.867 5.25677C223.158 4.03691 224.97 3.20838 227.581 2.69173C230.201 2.17353 233.544 1.984 237.824 1.984V-0.0160027ZM298.808 1.56H299.808V0.559999H298.808V1.56ZM288.728 1.56V0.559999H287.728V1.56H288.728ZM275.672 1.56H276.672V0.559999H275.672V1.56ZM265.592 1.56V0.559999H264.592V1.56H265.592ZM299.808 23.64V1.56H297.808V23.64H299.808ZM298.808 0.559999H288.728V2.56H298.808V0.559999ZM287.728 1.56V23.64H289.728V1.56H287.728ZM287.728 23.64C287.728 25.2707 287.664 26.5083 287.499 27.4576C287.334 28.4052 287.081 28.9781 286.768 29.351C286.16 30.0749 285.007 30.416 282.2 30.416V32.416C284.913 32.416 287.024 32.1571 288.3 30.637C288.929 29.8879 289.273 28.9278 289.469 27.8009C289.665 26.6757 289.728 25.2973 289.728 23.64H287.728ZM282.2 30.416C279.393 30.416 278.24 30.0749 277.632 29.351C277.319 28.9781 277.066 28.4052 276.901 27.4576C276.735 26.5083 276.672 25.2707 276.672 23.64H274.672C274.672 25.2973 274.734 26.6757 274.93 27.8009C275.127 28.9278 275.471 29.8879 276.1 30.637C277.376 32.1571 279.487 32.416 282.2 32.416V30.416ZM276.672 23.64V1.56H274.672V23.64H276.672ZM275.672 0.559999H265.592V2.56H275.672V0.559999ZM264.592 1.56V23.64H266.592V1.56H264.592ZM264.592 23.64C264.592 27.0175 264.753 29.7806 265.239 32.0125C265.727 34.2581 266.558 36.0361 267.947 37.3694C269.332 38.6991 271.172 39.4907 273.495 39.9565C275.809 40.4206 278.68 40.576 282.2 40.576V38.576C278.712 38.576 276.002 38.4194 273.888 37.9955C271.783 37.5733 270.347 36.9009 269.332 35.9266C268.321 34.9559 267.629 33.5899 267.193 31.5875C266.755 29.5714 266.592 26.9825 266.592 23.64H264.592ZM282.2 40.576C285.72 40.576 288.59 40.4206 290.905 39.9565C293.227 39.4907 295.067 38.6991 296.452 37.3694C297.841 36.0361 298.673 34.2581 299.161 32.0125C299.647 29.7806 299.808 27.0175 299.808 23.64H297.808C297.808 26.9825 297.645 29.5714 297.207 31.5875C296.771 33.5899 296.078 34.9559 295.067 35.9266C294.052 36.9009 292.616 37.5733 290.511 37.9955C288.397 38.4194 285.688 38.576 282.2 38.576V40.576ZM316.462 39H315.462V40H316.462V39ZM326.542 39V40H327.542V39H326.542ZM326.542 9.72V8.72H325.542V9.72H326.542ZM338.11 9.72V10.72H339.11V9.72H338.11ZM338.11 1.56H339.11V0.559999H338.11V1.56ZM304.99 1.56V0.559999H303.99V1.56H304.99ZM304.99 9.72H303.99V10.72H304.99V9.72ZM316.462 9.72H317.462V8.72H316.462V9.72ZM316.462 40H326.542V38H316.462V40ZM327.542 39V9.72H325.542V39H327.542ZM326.542 10.72H338.11V8.72H326.542V10.72ZM339.11 9.72V1.56H337.11V9.72H339.11ZM338.11 0.559999H304.99V2.56H338.11V0.559999ZM303.99 1.56V9.72H305.99V1.56H303.99ZM304.99 10.72H316.462V8.72H304.99V10.72ZM315.462 9.72V39H317.462V9.72H315.462Z" fill="white"/>
</svg>
