<svg width="341" height="191" viewBox="0 0 341 191" fill="none" xmlns="http://www.w3.org/2000/svg">
<path d="M81.9179 1.88H57.9979L42.6059 32.04H41.9819L26.9019 1.88H1.94188L31.2699 54.088V83H53.1099V54.088L81.9179 1.88ZM123.593 18.312C141.585 18.312 144.913 22.056 144.913 42.44C144.913 62.824 141.585 66.568 123.593 66.568C105.601 66.568 102.273 62.824 102.273 42.44C102.273 22.056 105.601 18.312 123.593 18.312ZM79.3934 42.44C79.3934 77.696 86.3614 84.248 123.593 84.248C160.825 84.248 167.793 77.696 167.793 42.44C167.793 7.184 160.825 0.631994 123.593 0.631994C86.3614 0.631994 79.3934 7.184 79.3934 42.44ZM247.058 49.72V1.88H225.218V49.72C225.218 63.968 223.034 66.568 211.074 66.568C199.114 66.568 196.93 63.968 196.93 49.72V1.88H175.09V49.72C175.09 78.84 180.706 84.248 211.074 84.248C241.442 84.248 247.058 78.84 247.058 49.72ZM303.89 1.88H255.426V83H277.266V56.48H298.69C305.658 56.48 307.842 58.768 307.842 67.92C307.842 75.2 308.258 79.568 310.026 83H333.946V82.064C330.618 78.32 329.786 71.248 329.786 63.032C329.786 53.152 325.106 49.928 315.954 47.848C326.978 45.352 330.93 40.776 330.93 31.104V27.984C330.93 5.93599 326.874 1.88 303.89 1.88ZM277.266 39.84V19.56H298.274C307.426 19.56 309.09 21.328 309.09 29.544C309.09 38.072 307.426 39.84 298.274 39.84H277.266Z" fill="white"/>
<path d="M81.9179 1.88L83.2312 2.60468L84.4588 0.379997H81.9179V1.88ZM57.9979 1.88V0.379997H57.0793L56.6618 1.19814L57.9979 1.88ZM42.6059 32.04V33.54H43.5244L43.9419 32.7219L42.6059 32.04ZM41.9819 32.04L40.6402 32.7108L41.0548 33.54H41.9819V32.04ZM26.9019 1.88L28.2435 1.20918L27.8289 0.379997H26.9019V1.88ZM1.94187 1.88V0.379997H-0.621227L0.634094 2.61465L1.94187 1.88ZM31.2699 54.088H32.7699V53.6955L32.5777 53.3533L31.2699 54.088ZM31.2699 83H29.7699V84.5H31.2699V83ZM53.1099 83V84.5H54.6099V83H53.1099ZM53.1099 54.088L51.7965 53.3633L51.6099 53.7016V54.088H53.1099ZM81.9179 0.379997H57.9979V3.38H81.9179V0.379997ZM56.6618 1.19814L41.2698 31.3581L43.9419 32.7219L59.3339 2.56185L56.6618 1.19814ZM42.6059 30.54H41.9819V33.54H42.6059V30.54ZM43.3235 31.3692L28.2435 1.20918L25.5602 2.55082L40.6402 32.7108L43.3235 31.3692ZM26.9019 0.379997H1.94187V3.38H26.9019V0.379997ZM0.634094 2.61465L29.9621 54.8226L32.5777 53.3533L3.24966 1.14535L0.634094 2.61465ZM29.7699 54.088V83H32.7699V54.088H29.7699ZM31.2699 84.5H53.1099V81.5H31.2699V84.5ZM54.6099 83V54.088H51.6099V83H54.6099ZM54.4232 54.8127L83.2312 2.60468L80.6046 1.15531L51.7965 53.3633L54.4232 54.8127ZM123.593 19.812C128.063 19.812 131.503 20.0471 134.171 20.6755C136.811 21.2973 138.6 22.2822 139.877 23.7257C141.169 25.1867 142.071 27.2701 142.637 30.3424C143.205 33.421 143.413 37.3656 143.413 42.44H146.413C146.413 37.3224 146.206 33.155 145.587 29.7986C144.968 26.4359 143.913 23.7613 142.124 21.7383C140.32 19.6978 137.904 18.4727 134.859 17.7555C131.843 17.0449 128.12 16.812 123.593 16.812V19.812ZM143.413 42.44C143.413 47.5144 143.205 51.459 142.637 54.5376C142.071 57.6099 141.169 59.6933 139.877 61.1543C138.6 62.5978 136.811 63.5827 134.171 64.2045C131.503 64.8329 128.063 65.068 123.593 65.068V68.068C128.12 68.068 131.843 67.8351 134.859 67.1245C137.904 66.4073 140.32 65.1822 142.124 63.1417C143.913 61.1187 144.968 58.4441 145.587 55.0814C146.206 51.725 146.413 47.5576 146.413 42.44H143.413ZM123.593 65.068C119.124 65.068 115.684 64.8329 113.016 64.2045C110.376 63.5827 108.587 62.5978 107.31 61.1543C106.018 59.6933 105.116 57.6099 104.55 54.5376C103.982 51.459 103.773 47.5144 103.773 42.44H100.773C100.773 47.5576 100.981 51.725 101.599 55.0814C102.219 58.4441 103.274 61.1187 105.063 63.1417C106.867 65.1822 109.283 66.4073 112.328 67.1245C115.344 67.8351 119.067 68.068 123.593 68.068V65.068ZM103.773 42.44C103.773 37.3656 103.982 33.421 104.55 30.3424C105.116 27.2701 106.018 25.1867 107.31 23.7257C108.587 22.2822 110.376 21.2973 113.016 20.6755C115.684 20.0471 119.124 19.812 123.593 19.812V16.812C119.067 16.812 115.344 17.0449 112.328 17.7555C109.283 18.4727 106.867 19.6978 105.063 21.7383C103.274 23.7613 102.219 26.4359 101.599 29.7986C100.981 33.155 100.773 37.3224 100.773 42.44H103.773ZM77.8934 42.44C77.8934 51.2812 78.328 58.4341 79.5995 64.1707C80.8758 69.9291 83.0173 74.3626 86.5011 77.6552C89.9771 80.9404 94.6398 82.9481 100.689 84.1449C106.726 85.3393 114.262 85.748 123.593 85.748V82.748C114.309 82.748 107.012 82.3377 101.271 81.2019C95.542 80.0684 91.4818 78.2346 88.5618 75.4748C85.6495 72.7224 83.7221 68.9074 82.5284 63.5215C81.3298 58.1139 80.8934 51.2268 80.8934 42.44H77.8934ZM123.593 85.748C132.925 85.748 140.461 85.3393 146.498 84.1449C152.547 82.9481 157.21 80.9404 160.686 77.6552C164.17 74.3626 166.311 69.9291 167.587 64.1707C168.859 58.4341 169.293 51.2812 169.293 42.44H166.293C166.293 51.2268 165.857 58.1139 164.658 63.5215C163.465 68.9074 161.537 72.7224 158.625 75.4748C155.705 78.2346 151.645 80.0684 145.916 81.2019C140.175 82.3377 132.878 82.748 123.593 82.748V85.748ZM169.293 42.44C169.293 33.5988 168.859 26.4459 167.587 20.7093C166.311 14.9509 164.17 10.5174 160.686 7.22484C157.21 3.93963 152.547 1.93192 146.498 0.735143C140.461 -0.459311 132.925 -0.868006 123.593 -0.868006V2.13199C132.878 2.13199 140.175 2.5423 145.916 3.6781C151.645 4.81157 155.705 6.64536 158.625 9.40515C161.537 12.1576 163.465 15.9726 164.658 21.3585C165.857 26.7661 166.293 33.6532 166.293 42.44H169.293ZM123.593 -0.868006C114.262 -0.868006 106.726 -0.459311 100.689 0.735143C94.6398 1.93192 89.9771 3.93963 86.5011 7.22484C83.0173 10.5174 80.8758 14.9509 79.5995 20.7093C78.328 26.4459 77.8934 33.5988 77.8934 42.44H80.8934C80.8934 33.6532 81.3298 26.7661 82.5284 21.3585C83.7221 15.9726 85.6495 12.1576 88.5618 9.40515C91.4818 6.64536 95.542 4.81157 101.271 3.6781C107.012 2.5423 114.309 2.13199 123.593 2.13199V-0.868006ZM247.058 1.88H248.558V0.379997H247.058V1.88ZM225.218 1.88V0.379997H223.718V1.88H225.218ZM196.93 1.88H198.43V0.379997H196.93V1.88ZM175.09 1.88V0.379997H173.59V1.88H175.09ZM248.558 49.72V1.88H245.558V49.72H248.558ZM247.058 0.379997H225.218V3.38H247.058V0.379997ZM223.718 1.88V49.72H226.718V1.88H223.718ZM223.718 49.72C223.718 53.2621 223.58 55.9905 223.212 58.1059C222.844 60.2188 222.266 61.5891 221.482 62.5225C219.942 64.3564 217.124 65.068 211.074 65.068V68.068C216.983 68.068 221.237 67.4796 223.779 64.4515C225.037 62.9539 225.752 61.0027 226.167 58.6209C226.582 56.2415 226.718 53.3019 226.718 49.72H223.718ZM211.074 65.068C205.023 65.068 202.205 64.3564 200.665 62.5225C199.882 61.5891 199.304 60.2188 198.936 58.1059C198.567 55.9905 198.43 53.2621 198.43 49.72H195.43C195.43 53.3019 195.565 56.2415 195.98 58.6209C196.395 61.0027 197.111 62.9539 198.368 64.4515C200.91 67.4796 205.164 68.068 211.074 68.068V65.068ZM198.43 49.72V1.88H195.43V49.72H198.43ZM196.93 0.379997H175.09V3.38H196.93V0.379997ZM173.59 1.88V49.72H176.59V1.88H173.59ZM173.59 49.72C173.59 57.0262 173.94 62.9549 174.976 67.7188C176.017 72.5031 177.772 76.2181 180.655 78.9861C183.533 81.7486 187.385 83.424 192.345 84.4187C197.292 85.4108 203.458 85.748 211.074 85.748V82.748C203.506 82.748 197.581 82.4092 192.935 81.4773C188.301 80.548 185.055 79.0514 182.732 76.8219C180.416 74.5979 178.869 71.5009 177.907 67.0812C176.942 62.6411 176.59 56.9738 176.59 49.72H173.59ZM211.074 85.748C218.69 85.748 224.855 85.4108 229.803 84.4187C234.763 83.424 238.615 81.7486 241.492 78.9861C244.376 76.2181 246.131 72.5031 247.171 67.7188C248.208 62.9549 248.558 57.0262 248.558 49.72H245.558C245.558 56.9738 245.206 62.6411 244.24 67.0812C243.279 71.5009 241.732 74.5979 239.415 76.8219C237.093 79.0514 233.847 80.548 229.213 81.4773C224.566 82.4092 218.642 82.748 211.074 82.748V85.748ZM255.426 1.88V0.379997H253.926V1.88H255.426ZM255.426 83H253.926V84.5H255.426V83ZM277.266 83V84.5H278.766V83H277.266ZM277.266 56.48V54.98H275.766V56.48H277.266ZM310.026 83L308.692 83.6869L309.111 84.5H310.026V83ZM333.946 83V84.5H335.446V83H333.946ZM333.946 82.064H335.446V81.4937L335.067 81.0675L333.946 82.064ZM315.954 47.848L315.622 46.385L315.621 49.3107L315.954 47.848ZM277.266 39.84H275.766V41.34H277.266V39.84ZM277.266 19.56V18.06H275.766V19.56H277.266ZM303.89 0.379997H255.426V3.38H303.89V0.379997ZM253.926 1.88V83H256.926V1.88H253.926ZM255.426 84.5H277.266V81.5H255.426V84.5ZM278.766 83V56.48H275.766V83H278.766ZM277.266 57.98H298.69V54.98H277.266V57.98ZM298.69 57.98C302.101 57.98 303.764 58.563 304.722 59.7231C305.766 60.987 306.342 63.3405 306.342 67.92H309.342C309.342 63.3475 308.826 59.981 307.035 57.8129C305.159 55.5409 302.246 54.98 298.69 54.98V57.98ZM306.342 67.92C306.342 75.1767 306.737 79.8924 308.692 83.6869L311.359 82.3131C309.778 79.2436 309.342 75.2233 309.342 67.92H306.342ZM310.026 84.5H333.946V81.5H310.026V84.5ZM335.446 83V82.064H332.446V83H335.446ZM335.067 81.0675C333.661 79.4865 332.692 77.0886 332.091 73.9433C331.493 70.8164 331.286 67.1031 331.286 63.032H328.286C328.286 67.1769 328.494 71.1076 329.144 74.5067C329.791 77.8874 330.902 80.8975 332.825 83.0605L335.067 81.0675ZM331.286 63.032C331.286 57.8537 330.053 54.1301 327.359 51.4514C324.73 48.8373 320.916 47.4376 316.286 46.3853L315.621 49.3107C320.143 50.3384 323.245 51.5907 325.244 53.5786C327.178 55.5019 328.286 58.3303 328.286 63.032H331.286ZM316.285 49.311C321.913 48.0368 326.023 46.175 328.697 43.1629C331.402 40.1161 332.43 36.1324 332.43 31.104H329.43C329.43 35.7476 328.481 38.8879 326.454 41.1711C324.396 43.489 321.019 45.1632 315.622 46.385L316.285 49.311ZM332.43 31.104V27.984H329.43V31.104H332.43ZM332.43 27.984C332.43 22.4483 332.177 17.9322 331.404 14.2921C330.627 10.6324 329.3 7.74736 327.073 5.58725C324.85 3.43161 321.882 2.14522 318.106 1.38755C314.343 0.632579 309.659 0.379997 303.89 0.379997V3.38C309.612 3.38 314.054 3.63441 317.516 4.32894C320.964 5.02078 323.32 6.12638 324.984 7.74074C326.644 9.35063 327.768 11.6136 328.469 14.9154C329.175 18.2368 329.43 22.4957 329.43 27.984H332.43ZM278.766 39.84V19.56H275.766V39.84H278.766ZM277.266 21.06H298.274V18.06H277.266V21.06ZM298.274 21.06C300.532 21.06 302.232 21.1708 303.525 21.4344C304.807 21.6958 305.578 22.0856 306.085 22.563C306.583 23.032 306.968 23.7185 307.224 24.849C307.485 26.0029 307.59 27.5186 307.59 29.544H310.59C310.59 27.4614 310.486 25.6751 310.15 24.1868C309.807 22.675 309.204 21.379 308.142 20.379C307.089 19.3874 305.728 18.8217 304.124 18.4948C302.531 18.1702 300.591 18.06 298.274 18.06V21.06ZM307.59 29.544C307.59 31.6489 307.485 33.2271 307.221 34.4295C306.963 35.6113 306.573 36.3268 306.071 36.8115C305.564 37.3014 304.797 37.6971 303.52 37.9617C302.23 38.229 300.533 38.34 298.274 38.34V41.34C300.59 41.34 302.533 41.23 304.129 40.8993C305.738 40.5659 307.103 39.9866 308.156 38.9685C309.215 37.9452 309.813 36.6197 310.152 35.0715C310.487 33.5439 310.59 31.7031 310.59 29.544H307.59ZM298.274 38.34H277.266V41.34H298.274V38.34ZM87.3702 154.576L88.8701 154.566L88.8598 153.076H87.3702V154.576ZM64.4902 154.576V153.076H62.9695L62.9903 154.597L64.4902 154.576ZM64.4902 142.2L62.9903 142.179L62.9693 143.7H64.4902V142.2ZM87.3702 142.2V143.7H88.8598L88.8701 142.21L87.3702 142.2ZM87.3702 153.076H64.4902V156.076H87.3702V153.076ZM62.9903 154.597C63.0419 158.363 62.8764 161.241 62.3725 163.461C61.8754 165.651 61.0703 167.107 59.8975 168.141C58.7047 169.191 56.977 169.942 54.3781 170.416C51.7745 170.892 48.4268 171.068 44.1062 171.068V174.068C48.4695 174.068 52.0378 173.893 54.9169 173.368C57.8008 172.841 60.1226 171.941 61.8808 170.391C63.659 168.825 64.7064 166.732 65.2981 164.125C65.8829 161.548 66.0424 158.381 65.99 154.555L62.9903 154.597ZM44.1062 171.068C35.2974 171.068 30.8327 170.07 28.3444 167.171C27.091 165.711 26.2139 163.624 25.6635 160.546C25.1124 157.463 24.9102 153.515 24.9102 148.44H21.9102C21.9102 153.557 22.1109 157.721 22.7103 161.074C23.3104 164.43 24.3314 167.101 26.0679 169.125C29.5597 173.194 35.4429 174.068 44.1062 174.068V171.068ZM24.9102 148.44C24.9102 143.365 25.1124 139.417 25.6635 136.334C26.2139 133.256 27.091 131.169 28.3444 129.709C30.8327 126.81 35.2974 125.812 44.1062 125.812V122.812C35.4429 122.812 29.5597 123.686 26.0679 127.755C24.3314 129.779 23.3104 132.45 22.7103 135.807C22.1109 139.159 21.9102 143.323 21.9102 148.44H24.9102ZM44.1062 125.812C48.4267 125.812 51.7748 125.988 54.379 126.462C56.9787 126.935 58.7074 127.683 59.9003 128.729C61.0726 129.757 61.8765 131.203 62.3729 133.377C62.8763 135.582 63.0419 138.439 62.9903 142.179L65.99 142.221C66.0424 138.421 65.883 135.272 65.2976 132.709C64.7053 130.115 63.6568 128.032 61.878 126.473C60.12 124.932 57.7991 124.035 54.9161 123.511C52.0375 122.987 48.4697 122.812 44.1062 122.812V125.812ZM64.4902 143.7H87.3702V140.7H64.4902V143.7ZM88.8701 142.21C88.9737 127.296 87.4007 117.677 80.5366 112.026C77.1285 109.22 72.5606 107.516 66.6371 106.499C60.7142 105.482 53.3045 105.132 44.1062 105.132V108.132C53.2638 108.132 60.4661 108.484 66.1295 109.456C71.7922 110.428 75.7849 112 78.6298 114.342C84.2717 118.987 85.9746 127.152 85.8702 142.19L88.8701 142.21ZM44.1062 105.132C34.904 105.132 27.4707 105.541 21.5144 106.736C15.5451 107.934 10.9429 109.944 7.51306 113.232C4.07748 116.526 1.96788 120.959 0.710834 126.714C-0.541745 132.448 -0.969844 139.599 -0.969844 148.44H2.03016C2.03016 139.653 2.46006 132.764 3.64173 127.354C4.81894 121.965 6.71984 118.149 9.58926 115.398C12.4645 112.641 16.4617 110.81 22.1047 109.677C27.7606 108.542 34.9523 108.132 44.1062 108.132V105.132ZM-0.969844 148.44C-0.969844 157.281 -0.541745 164.432 0.710834 170.166C1.96788 175.921 4.07748 180.354 7.51306 183.648C10.9429 186.936 15.5451 188.946 21.5144 190.144C27.4707 191.339 34.904 191.748 44.1062 191.748V188.748C34.9523 188.748 27.7606 188.338 22.1047 187.203C16.4617 186.07 12.4645 184.239 9.58926 181.482C6.71984 178.731 4.81894 174.915 3.64173 169.526C2.46006 164.116 2.03016 157.227 2.03016 148.44H-0.969844ZM44.1062 191.748C53.3045 191.748 60.7144 191.398 66.6375 190.379C72.5614 189.361 77.1297 187.653 80.538 184.84C87.4009 179.175 88.9737 169.531 88.8701 154.566L85.8702 154.586C85.9746 169.677 84.2714 177.869 78.6283 182.526C75.7836 184.874 71.7914 186.449 66.1291 187.423C60.466 188.396 53.2639 188.748 44.1062 188.748V191.748ZM154.297 107.88L155.717 107.396L155.371 106.38H154.297V107.88ZM118.937 107.88V106.38H117.868L117.519 107.391L118.937 107.88ZM90.9614 189L89.5434 188.511L88.8574 190.5H90.9614V189ZM114.881 189V190.5H116.016L116.325 189.408L114.881 189ZM119.353 173.192V171.692H118.219L117.91 172.784L119.353 173.192ZM151.905 173.192L153.333 172.732L152.998 171.692H151.905V173.192ZM157.001 189L155.574 189.46L155.909 190.5H157.001V189ZM181.961 189V190.5H184.058L183.381 188.516L181.961 189ZM124.449 155.512L123.041 154.997L122.304 157.012H124.449V155.512ZM135.785 124.52V123.02H134.737L134.377 124.005L135.785 124.52ZM136.617 124.52L138.039 124.043L137.696 123.02H136.617V124.52ZM147.017 155.512V157.012H149.103L148.439 155.035L147.017 155.512ZM154.297 106.38H118.937V109.38H154.297V106.38ZM117.519 107.391L89.5434 188.511L92.3794 189.489L120.355 108.369L117.519 107.391ZM90.9614 190.5H114.881V187.5H90.9614V190.5ZM116.325 189.408L120.797 173.6L117.91 172.784L113.438 188.592L116.325 189.408ZM119.353 174.692H151.905V171.692H119.353V174.692ZM150.478 173.652L155.574 189.46L158.429 188.54L153.333 172.732L150.478 173.652ZM157.001 190.5H181.961V187.5H157.001V190.5ZM183.381 188.516L155.717 107.396L152.878 108.364L180.542 189.484L183.381 188.516ZM125.858 156.027L137.194 125.035L134.377 124.005L123.041 154.997L125.858 156.027ZM135.785 126.02H136.617V123.02H135.785V126.02ZM135.195 124.997L145.595 155.989L148.439 155.035L138.039 124.043L135.195 124.997ZM147.017 154.012H124.449V157.012H147.017V154.012ZM186.617 107.88V106.38H185.117V107.88H186.617ZM186.617 189H185.117V190.5H186.617V189ZM208.457 189V190.5H209.957V189H208.457ZM208.457 162.48V160.98H206.957V162.48H208.457ZM241.217 189L239.884 189.687L240.302 190.5H241.217V189ZM265.137 189V190.5H266.637V189H265.137ZM265.137 188.064H266.637V187.494L266.258 187.067L265.137 188.064ZM247.145 153.848L246.814 152.385L246.813 155.311L247.145 153.848ZM208.457 145.84H206.957V147.34H208.457V145.84ZM208.457 125.56V124.06H206.957V125.56H208.457ZM235.081 106.38H186.617V109.38H235.081V106.38ZM185.117 107.88V189H188.117V107.88H185.117ZM186.617 190.5H208.457V187.5H186.617V190.5ZM209.957 189V162.48H206.957V189H209.957ZM208.457 163.98H229.881V160.98H208.457V163.98ZM229.881 163.98C233.292 163.98 234.955 164.563 235.913 165.723C236.957 166.987 237.533 169.34 237.533 173.92H240.533C240.533 169.348 240.017 165.981 238.227 163.813C236.351 161.541 233.438 160.98 229.881 160.98V163.98ZM237.533 173.92C237.533 181.177 237.929 185.892 239.884 189.687L242.55 188.313C240.969 185.244 240.533 181.223 240.533 173.92H237.533ZM241.217 190.5H265.137V187.5H241.217V190.5ZM266.637 189V188.064H263.637V189H266.637ZM266.258 187.067C264.853 185.486 263.884 183.089 263.282 179.943C262.684 176.816 262.477 173.103 262.477 169.032H259.477C259.477 173.177 259.686 177.108 260.336 180.507C260.982 183.887 262.093 186.898 264.016 189.061L266.258 187.067ZM262.477 169.032C262.477 163.854 261.245 160.13 258.551 157.451C255.922 154.837 252.108 153.438 247.477 152.385L246.813 155.311C251.334 156.338 254.436 157.591 256.435 159.579C258.37 161.502 259.477 164.33 259.477 169.032H262.477ZM247.476 155.311C253.104 154.037 257.215 152.175 259.889 149.163C262.594 146.116 263.621 142.132 263.621 137.104H260.621C260.621 141.748 259.672 144.888 257.645 147.171C255.587 149.489 252.21 151.163 246.814 152.385L247.476 155.311ZM263.621 137.104V133.984H260.621V137.104H263.621ZM263.621 133.984C263.621 128.448 263.369 123.932 262.595 120.292C261.818 116.632 260.492 113.747 258.264 111.587C256.042 109.432 253.074 108.145 249.297 107.388C245.534 106.633 240.85 106.38 235.081 106.38V109.38C240.804 109.38 245.246 109.634 248.707 110.329C252.156 111.021 254.511 112.126 256.176 113.741C257.836 115.351 258.96 117.614 259.661 120.915C260.366 124.237 260.621 128.496 260.621 133.984H263.621ZM209.957 145.84V125.56H206.957V145.84H209.957ZM208.457 127.06H229.465V124.06H208.457V127.06ZM229.465 127.06C231.724 127.06 233.423 127.171 234.716 127.434C235.999 127.696 236.77 128.086 237.277 128.563C237.775 129.032 238.159 129.718 238.415 130.849C238.676 132.003 238.781 133.519 238.781 135.544H241.781C241.781 133.461 241.678 131.675 241.341 130.187C240.999 128.675 240.395 127.379 239.333 126.379C238.28 125.387 236.919 124.822 235.316 124.495C233.723 124.17 231.782 124.06 229.465 124.06V127.06ZM238.781 135.544C238.781 137.649 238.676 139.227 238.413 140.43C238.154 141.611 237.764 142.327 237.262 142.812C236.756 143.301 235.989 143.697 234.712 143.962C233.422 144.229 231.724 144.34 229.465 144.34V147.34C231.782 147.34 233.724 147.23 235.32 146.899C236.929 146.566 238.294 145.987 239.348 144.968C240.406 143.945 241.004 142.62 241.343 141.071C241.678 139.544 241.781 137.703 241.781 135.544H238.781ZM229.465 144.34H208.457V147.34H229.465V144.34ZM293.146 189H291.646V190.5H293.146V189ZM314.986 189V190.5H316.486V189H314.986ZM314.986 125.56V124.06H313.486V125.56H314.986ZM340.05 125.56V127.06H341.55V125.56H340.05ZM340.05 107.88H341.55V106.38H340.05V107.88ZM268.29 107.88V106.38H266.79V107.88H268.29ZM268.29 125.56H266.79V127.06H268.29V125.56ZM293.146 125.56H294.646V124.06H293.146V125.56ZM293.146 190.5H314.986V187.5H293.146V190.5ZM316.486 189V125.56H313.486V189H316.486ZM314.986 127.06H340.05V124.06H314.986V127.06ZM341.55 125.56V107.88H338.55V125.56H341.55ZM340.05 106.38H268.29V109.38H340.05V106.38ZM266.79 107.88V125.56H269.79V107.88H266.79ZM268.29 127.06H293.146V124.06H268.29V127.06ZM291.646 125.56V189H294.646V125.56H291.646Z" fill="white"/>
</svg>
